<?xml version="1.0" encoding="UTF-8" standalone="no"?>
<!DOCTYPE svg PUBLIC "-//W3C//DTD SVG 1.1//EN" "http://www.w3.org/Graphics/SVG/1.1/DTD/svg11.dtd">
<svg xmlns="http://www.w3.org/2000/svg" version="1.1" viewBox="0.00 0.00 300.00 100.00">
<g stroke-width="2.00" fill="none" stroke-linecap="butt">
<path stroke="#e59093" vector-effect="non-scaling-stroke" d="
  M 33.27 23.97
  A 8.24 8.24 0.0 0 0 25.03 15.73
  A 8.24 8.24 0.0 0 0 16.79 23.97
  A 8.24 8.24 0.0 0 0 25.03 32.21
  A 8.24 8.24 0.0 0 0 33.27 23.97"
/>
<path stroke="#9acda3" vector-effect="non-scaling-stroke" d="
  M 50.5110 17.7031
  A 1.19 1.19 0.0 0 0 49.3231 16.5110
  L 36.7031 16.4890
  A 1.19 1.19 0.0 0 0 35.5110 17.6769
  L 35.4890 30.2969
  A 1.19 1.19 0.0 0 0 36.6769 31.4890
  L 49.2969 31.5110
  A 1.19 1.19 0.0 0 0 50.4890 30.3231
  L 50.5110 17.7031"
/>
<path stroke="#9acda3" vector-effect="non-scaling-stroke" d="
  M 68.4480 17.6639
  A 1.20 1.20 0.0 0 0 67.2438 16.4681
  L 54.6639 16.5120
  A 1.20 1.20 0.0 0 0 53.4681 17.7162
  L 53.5120 30.3161
  A 1.20 1.20 0.0 0 0 54.7162 31.5119
  L 67.2961 31.4680
  A 1.20 1.20 0.0 0 0 68.4919 30.2638
  L 68.4480 17.6639"
/>
<path stroke="#8f8e8f" vector-effect="non-scaling-stroke" d="
  M 106.29 46.75
  L 102.21 45.74
  Q 101.75 45.62 101.75 46.09
  L 101.75 47.67
  Q 101.75 48.28 102.31 48.51
  C 110.79 51.98 115.90 42.89 105.96 39.57
  A 1.57 1.57 0.0 0 1 106.38 36.52
  Q 108.22 36.42 109.91 37.22
  A 0.58 0.58 0.0 0 0 110.71 36.90
  L 111.16 35.68
  Q 111.38 35.08 110.80 34.82
  C 106.17 32.71 98.09 35.91 103.48 41.21
  C 104.70 42.41 107.07 42.93 107.98 44.00
  Q 109.24 45.48 106.96 46.67
  A 1.00 1.00 0.0 0 1 106.29 46.75"
/>
<path stroke="#8f8e8f" vector-effect="non-scaling-stroke" d="
  M 179.7600 49.4200
  A 7.83 7.22 90.0 0 0 186.9800 41.5900
  A 7.83 7.22 90.0 0 0 179.7600 33.7600
  A 7.83 7.22 90.0 0 0 172.5400 41.5900
  A 7.83 7.22 90.0 0 0 179.7600 49.4200"
/>
<path stroke="#8f8e8f" vector-effect="non-scaling-stroke" d="
  M 263.18 34.06
  A 0.30 0.30 0.0 0 0 262.89 34.26
  L 257.88 48.60
  A 0.30 0.30 0.0 0 0 258.16 49.00
  L 260.91 49.00
  A 0.30 0.30 0.0 0 0 261.19 48.79
  L 262.11 45.71
  A 0.30 0.30 0.0 0 1 262.39 45.50
  L 267.41 45.50
  A 0.30 0.30 0.0 0 1 267.70 45.72
  L 268.60 48.78
  A 0.30 0.30 0.0 0 0 268.89 49.00
  L 271.64 49.00
  A 0.30 0.30 0.0 0 0 271.92 48.60
  L 266.89 34.32
  A 0.30 0.30 0.0 0 0 266.61 34.12
  L 263.18 34.06"
/>
<path stroke="#9acda3" vector-effect="non-scaling-stroke" d="
  M 32.4773 35.6309
  A 1.39 1.39 0.0 0 0 31.0801 34.2482
  L 18.9002 34.3120
  A 1.39 1.39 0.0 0 0 17.5175 35.7093
  L 17.5827 48.1491
  A 1.39 1.39 0.0 0 0 18.9799 49.5318
  L 31.1598 49.4680
  A 1.39 1.39 0.0 0 0 32.5425 48.0707
  L 32.4773 35.6309"
/>
<path stroke="#9acda3" vector-effect="non-scaling-stroke" d="
  M 50.5216 35.7762
  A 1.37 1.37 0.0 0 0 49.1564 34.4014
  L 36.9164 34.3587
  A 1.37 1.37 0.0 0 0 35.5417 35.7239
  L 35.4984 48.1038
  A 1.37 1.37 0.0 0 0 36.8636 49.4786
  L 49.1036 49.5213
  A 1.37 1.37 0.0 0 0 50.4783 48.1561
  L 50.5216 35.7762"
/>
<path stroke="#8f8e8f" vector-effect="non-scaling-stroke" d="
  M 82.00 34.57
  A 0.31 0.31 0.0 0 0 81.69 34.26
  L 79.31 34.26
  A 0.31 0.31 0.0 0 0 79.00 34.57
  L 79.00 48.69
  A 0.31 0.31 0.0 0 0 79.31 49.00
  L 81.69 49.00
  A 0.31 0.31 0.0 0 0 82.00 48.69
  L 82.00 34.57"
/>
<path stroke="#8f8e8f" vector-effect="non-scaling-stroke" d="
  M 95.90 44.91
  L 90.01 34.70
  Q 89.75 34.25 89.23 34.25
  L 86.25 34.25
  Q 85.75 34.25 85.75 34.75
  L 85.75 48.38
  Q 85.75 49.00 86.37 49.00
  L 88.00 49.00
  Q 88.50 49.00 88.50 48.50
  L 88.50 39.01
  A 0.32 0.32 0.0 0 1 89.10 38.85
  L 94.64 48.53
  Q 94.91 49.00 95.45 49.00
  L 98.38 49.00
  Q 99.00 49.00 99.00 48.38
  L 99.00 34.87
  Q 99.00 34.25 98.37 34.25
  L 96.86 34.25
  Q 96.22 34.25 96.21 34.89
  L 96.14 44.85
  A 0.13 0.13 0.0 0 1 95.90 44.91"
/>
<path stroke="#8f8e8f" vector-effect="non-scaling-stroke" d="
  M 120.01 37.12
  A 0.37 0.37 0.0 0 1 120.38 36.75
  L 123.63 36.75
  A 0.37 0.37 0.0 0 0 124.00 36.38
  L 124.00 34.62
  A 0.37 0.37 0.0 0 0 123.63 34.25
  L 113.33 34.25
  A 0.37 0.37 0.0 0 0 112.97 34.58
  L 112.78 36.34
  A 0.37 0.37 0.0 0 0 113.15 36.75
  L 116.35 36.75
  A 0.37 0.37 0.0 0 1 116.72 37.12
  L 116.82 48.63
  A 0.37 0.37 0.0 0 0 117.19 49.00
  L 119.63 49.00
  A 0.37 0.37 0.0 0 0 120.00 48.63
  L 120.01 37.12"
/>
<path stroke="#8f8e8f" vector-effect="non-scaling-stroke" d="
  M 129.50 34.70
  A 0.44 0.44 0.0 0 0 129.06 34.26
  L 126.94 34.26
  A 0.44 0.44 0.0 0 0 126.50 34.70
  L 126.50 48.58
  A 0.44 0.44 0.0 0 0 126.94 49.02
  L 129.06 49.02
  A 0.44 0.44 0.0 0 0 129.50 48.58
  L 129.50 34.70"
/>
<path stroke="#8f8e8f" vector-effect="non-scaling-stroke" d="
  M 135.57 36.75
  A 0.44 0.44 0.0 0 1 136.01 37.19
  L 135.98 48.56
  A 0.44 0.44 0.0 0 0 136.42 49.00
  L 138.56 49.00
  A 0.44 0.44 0.0 0 0 139.00 48.56
  L 139.00 37.19
  A 0.44 0.44 0.0 0 1 139.44 36.75
  L 142.56 36.75
  A 0.44 0.44 0.0 0 0 143.00 36.31
  L 143.00 34.69
  A 0.44 0.44 0.0 0 0 142.56 34.25
  L 132.44 34.25
  A 0.44 0.44 0.0 0 0 132.00 34.69
  L 132.00 36.31
  A 0.44 0.44 0.0 0 0 132.44 36.75
  L 135.57 36.75"
/>
<path stroke="#8f8e8f" vector-effect="non-scaling-stroke" d="
  M 154.03 45.11
  C 152.80 47.57 148.51 47.04 148.51 43.73
  Q 148.51 39.38 148.49 34.93
  Q 148.49 34.25 147.80 34.25
  L 146.02 34.25
  Q 145.50 34.25 145.50 34.77
  C 145.51 40.10 143.19 50.70 152.82 49.07
  C 159.40 47.96 157.53 39.55 157.49 34.75
  Q 157.49 34.25 156.98 34.25
  L 155.01 34.25
  Q 154.49 34.25 154.49 34.77
  C 154.51 37.23 155.05 43.05 154.03 45.11"
/>
<path stroke="#8f8e8f" vector-effect="non-scaling-stroke" d="
  M 163.19 36.75
  A 0.56 0.56 0.0 0 1 163.75 37.31
  L 163.75 48.44
  A 0.56 0.56 0.0 0 0 164.31 49.00
  L 166.44 49.00
  A 0.56 0.56 0.0 0 0 167.00 48.44
  L 167.00 37.30
  A 0.56 0.56 0.0 0 1 167.57 36.74
  L 170.41 36.77
  A 0.56 0.56 0.0 0 0 170.97 36.23
  L 171.01 34.82
  A 0.56 0.56 0.0 0 0 170.45 34.25
  L 160.31 34.25
  A 0.56 0.56 0.0 0 0 159.75 34.81
  L 159.75 36.19
  A 0.56 0.56 0.0 0 0 160.31 36.75
  L 163.19 36.75"
/>
<path stroke="#8f8e8f" vector-effect="non-scaling-stroke" d="
  M 198.82 40.75
  A 0.32 0.32 0.0 0 1 198.50 40.43
  L 198.50 37.07
  A 0.32 0.32 0.0 0 1 198.82 36.75
  L 203.43 36.75
  A 0.32 0.32 0.0 0 0 203.75 36.43
  L 203.75 34.57
  A 0.32 0.32 0.0 0 0 203.43 34.25
  L 195.82 34.25
  A 0.32 0.32 0.0 0 0 195.50 34.57
  L 195.50 48.68
  A 0.32 0.32 0.0 0 0 195.82 49.00
  L 198.18 49.00
  A 0.32 0.32 0.0 0 0 198.50 48.68
  L 198.50 43.57
  A 0.32 0.32 0.0 0 1 198.82 43.25
  L 203.12 43.25
  A 0.32 0.32 0.0 0 0 203.44 42.93
  L 203.44 41.07
  A 0.32 0.32 0.0 0 0 203.12 40.75
  L 198.82 40.75"
/>
<path stroke="#8f8e8f" vector-effect="non-scaling-stroke" d="
  M 210.37 46.50
  A 0.37 0.37 0.0 0 1 210.00 46.13
  L 210.00 43.16
  A 0.37 0.37 0.0 0 1 210.34 42.80
  L 214.66 42.48
  A 0.37 0.37 0.0 0 0 215.00 42.12
  L 215.00 40.37
  A 0.37 0.37 0.0 0 0 214.63 40.00
  L 210.37 40.00
  A 0.37 0.37 0.0 0 1 210.00 39.63
  L 210.00 37.12
  A 0.37 0.37 0.0 0 1 210.37 36.75
  L 214.83 36.75
  A 0.37 0.37 0.0 0 0 215.19 36.42
  L 215.37 34.66
  A 0.37 0.37 0.0 0 0 215.00 34.25
  L 207.37 34.25
  A 0.37 0.37 0.0 0 0 207.00 34.62
  L 207.00 48.63
  A 0.37 0.37 0.0 0 0 207.37 49.00
  L 215.12 49.00
  A 0.37 0.37 0.0 0 0 215.48 48.56
  L 215.16 46.80
  A 0.37 0.37 0.0 0 0 214.80 46.50
  L 210.37 46.50"
/>
<path stroke="#8f8e8f" vector-effect="non-scaling-stroke" d="
  M 218.50 34.64
  L 218.50 48.56
  A 0.42 0.42 0.0 0 0 218.92 48.98
  L 223.94 48.98
  A 6.82 6.65 -0.0 0 0 230.76 42.33
  L 230.76 40.87
  A 6.82 6.65 0.0 0 0 223.94 34.22
  L 218.92 34.22
  A 0.42 0.42 0.0 0 0 218.50 34.64"
/>
<path stroke="#8f8e8f" vector-effect="non-scaling-stroke" d="
  M 237.00 43.07
  A 0.44 0.44 0.0 0 1 237.45 42.63
  L 241.46 42.72
  A 0.44 0.44 0.0 0 0 241.91 42.34
  L 242.15 40.50
  A 0.44 0.44 0.0 0 0 241.71 40.00
  L 237.44 40.00
  A 0.44 0.44 0.0 0 1 237.00 39.56
  L 237.00 37.19
  A 0.44 0.44 0.0 0 1 237.44 36.75
  L 242.06 36.75
  A 0.44 0.44 0.0 0 0 242.50 36.31
  L 242.50 34.69
  A 0.44 0.44 0.0 0 0 242.06 34.25
  L 234.44 34.25
  A 0.44 0.44 0.0 0 0 234.00 34.69
  L 234.00 48.56
  A 0.44 0.44 0.0 0 0 234.44 49.00
  L 242.06 49.00
  A 0.44 0.44 0.0 0 0 242.50 48.56
  L 242.50 46.94
  A 0.44 0.44 0.0 0 0 242.06 46.50
  L 237.44 46.50
  A 0.44 0.44 0.0 0 1 237.00 46.06
  L 237.00 43.07"
/>
<path stroke="#8f8e8f" vector-effect="non-scaling-stroke" d="
  M 248.75 44.16
  A 1.00 0.99 -61.3 0 1 250.58 43.62
  L 253.73 48.56
  Q 254.01 49.00 254.53 49.00
  L 256.75 49.00
  Q 257.41 49.00 257.05 48.45
  L 253.52 43.14
  Q 253.11 42.53 253.74 42.15
  L 254.46 41.72
  Q 254.83 41.49 255.06 41.12
  Q 256.40 39.02 255.68 37.05
  C 254.40 33.57 249.30 34.16 246.21 34.29
  Q 245.75 34.31 245.75 34.76
  L 245.75 48.47
  Q 245.75 49.00 246.28 49.00
  L 248.25 49.00
  Q 248.75 49.00 248.75 48.50
  L 248.75 44.16"
/>
<path stroke="#8f8e8f" vector-effect="non-scaling-stroke" d="
  M 277.32 46.50
  A 0.32 0.32 0.0 0 1 277.00 46.18
  L 277.00 34.57
  A 0.32 0.32 0.0 0 0 276.68 34.25
  L 274.32 34.25
  A 0.32 0.32 0.0 0 0 274.00 34.57
  L 274.00 48.68
  A 0.32 0.32 0.0 0 0 274.32 49.00
  L 282.68 49.00
  A 0.32 0.32 0.0 0 0 283.00 48.68
  L 283.00 46.82
  A 0.32 0.32 0.0 0 0 282.68 46.50
  L 277.32 46.50"
/>
<path stroke="#9acda3" vector-effect="non-scaling-stroke" d="
  M 32.5222 53.6559
  A 1.13 1.13 0.0 0 0 31.3961 52.5220
  L 18.8162 52.4781
  A 1.13 1.13 0.0 0 0 17.6822 53.6041
  L 17.6378 66.3241
  A 1.13 1.13 0.0 0 0 18.7639 67.4580
  L 31.3438 67.5019
  A 1.13 1.13 0.0 0 0 32.4778 66.3759
  L 32.5222 53.6559"
/>
<path stroke="#9acda3" vector-effect="non-scaling-stroke" d="
  M 50.4993 53.8369
  A 1.36 1.36 0.0 0 0 49.1369 52.4793
  L 36.8569 52.5007
  A 1.36 1.36 0.0 0 0 35.4993 53.8631
  L 35.5207 66.1431
  A 1.36 1.36 0.0 0 0 36.8831 67.5007
  L 49.1631 67.4793
  A 1.36 1.36 0.0 0 0 50.5207 66.1169
  L 50.4993 53.8369"
/>
<path stroke="#9acda3" vector-effect="non-scaling-stroke" d="
  M 68.4808 53.8231
  A 1.32 1.32 0.0 0 0 67.1631 52.5008
  L 54.8231 52.4792
  A 1.32 1.32 0.0 0 0 53.5008 53.7969
  L 53.4792 66.1569
  A 1.32 1.32 0.0 0 0 54.7969 67.4792
  L 67.1369 67.5008
  A 1.32 1.32 0.0 0 0 68.4592 66.1831
  L 68.4808 53.8231"
/>
<path stroke="#8f8e8f" vector-effect="non-scaling-stroke" d="
  M 86.23 66.19
  C 76.92 68.31 78.27 54.76 86.01 57.34
  Q 86.40 57.48 86.69 57.18
  L 86.95 56.92
  A 0.35 0.35 0.0 0 0 86.84 56.35
  C 75.87 51.92 75.40 71.34 86.52 67.19
  A 0.52 0.52 0.0 0 0 86.23 66.19"
/>
<path stroke="#8f8e8f" vector-effect="non-scaling-stroke" d="
  M 120.97 56.50
  A 0.77 0.77 0.0 0 0 120.20 55.73
  A 0.77 0.77 0.0 0 0 119.43 56.50
  A 0.77 0.77 0.0 0 0 120.20 57.27
  A 0.77 0.77 0.0 0 0 120.97 56.50"
/>
<path stroke="#8f8e8f" vector-effect="non-scaling-stroke" d="
  M 99.50 58.19
  Q 99.61 57.54 99.35 56.96
  Q 99.09 56.38 98.80 56.94
  L 97.71 59.01
  Q 97.51 59.40 97.67 59.80
  C 99.05 63.06 96.32 67.61 101.47 67.80
  A 0.62 0.62 0.0 0 0 101.56 66.57
  L 100.29 66.44
  A 0.83 0.82 2.7 0 1 99.54 65.62
  L 99.48 60.67
  Q 99.47 60.05 100.08 59.96
  L 101.59 59.71
  A 0.48 0.48 0.0 0 0 101.52 58.75
  L 99.98 58.75
  A 0.49 0.48 4.5 0 1 99.50 58.19"
/>
<path stroke="#8f8e8f" vector-effect="non-scaling-stroke" d="
  M 93.16 62.24
  C 85.57 62.27 88.42 69.97 93.14 67.18
  Q 93.56 66.93 94.01 67.14
  L 94.79 67.52
  Q 95.33 67.78 95.38 67.18
  Q 95.78 62.94 95.39 60.93
  C 94.88 58.33 91.26 58.04 89.74 59.50
  A 0.49 0.48 11.4 0 0 90.27 60.29
  Q 91.89 59.61 93.45 60.03
  A 1.13 1.12 -37.6 0 1 93.16 62.24"
/>
<path stroke="#8f8e8f" vector-effect="non-scaling-stroke" d="
  M 108.41 60.32
  A 1.25 1.24 68.2 0 1 107.44 62.58
  C 100.60 60.84 103.41 71.18 108.00 66.98
  Q 108.36 66.65 108.75 66.94
  L 109.61 67.58
  Q 110.21 68.03 110.23 67.28
  C 110.32 63.93 111.23 55.50 104.33 59.48
  A 0.23 0.22 -33.7 0 0 104.26 59.81
  L 104.51 60.14
  A 0.40 0.40 0.0 0 0 105.02 60.26
  Q 106.84 59.33 108.41 60.32"
/>
<path stroke="#8f8e8f" vector-effect="non-scaling-stroke" d="
  M 114.08 59.45
  L 113.58 58.95
  Q 112.91 58.28 112.90 59.23
  L 112.81 66.95
  Q 112.81 67.52 113.37 67.50
  Q 113.56 67.50 113.74 67.50
  A 0.45 0.45 0.0 0 0 114.20 67.06
  L 114.35 61.47
  A 1.06 1.06 0.0 0 1 115.06 60.50
  L 117.69 59.59
  A 0.41 0.40 -48.2 0 0 117.65 58.81
  Q 116.15 58.46 115.05 59.47
  Q 114.55 59.93 114.08 59.45"
/>
<path stroke="#8f8e8f" vector-effect="non-scaling-stroke" d="
  M 130.70 60.71
  C 130.35 58.40 127.29 58.27 125.87 59.37
  Q 125.47 59.67 125.06 59.39
  L 124.36 58.91
  Q 123.75 58.49 123.75 59.23
  L 123.75 67.23
  A 0.50 0.50 0.0 0 0 124.75 67.32
  C 125.22 64.74 123.77 58.85 128.63 60.00
  A 1.03 1.01 -85.2 0 1 129.42 60.95
  L 129.73 67.00
  A 0.61 0.61 0.0 0 0 130.94 67.01
  Q 131.16 63.84 130.70 60.71"
/>
<path stroke="#8f8e8f" vector-effect="non-scaling-stroke" d="
  M 135.06 63.50
  L 139.33 63.50
  A 1.43 1.43 0.0 0 0 140.52 61.28
  Q 138.29 57.90 135.47 59.12
  C 130.61 61.22 133.88 70.51 139.94 67.01
  A 0.48 0.48 0.0 0 0 139.51 66.15
  Q 136.08 67.57 134.53 64.34
  Q 134.13 63.50 135.06 63.50"
/>
<path stroke="#8f8e8f" vector-effect="non-scaling-stroke" d="
  M 144.14 59.24
  L 143.34 58.99
  Q 142.78 58.81 142.77 59.40
  Q 142.73 63.02 142.75 66.65
  Q 142.75 67.09 142.93 67.30
  Q 143.17 67.58 143.59 67.52
  Q 144.05 67.45 144.07 66.99
  L 144.27 61.83
  A 2.15 2.15 0.0 0 1 146.10 59.79
  C 149.86 59.26 148.77 65.00 148.75 67.20
  Q 148.74 67.50 149.04 67.50
  L 149.48 67.50
  Q 149.97 67.50 149.98 67.00
  C 150.04 62.78 151.65 57.55 144.90 59.27
  Q 144.51 59.36 144.14 59.24"
/>
<path stroke="#8f8e8f" vector-effect="non-scaling-stroke" d="
  M 156.79 65.84
  Q 154.97 67.19 152.91 66.04
  A 0.45 0.45 0.0 0 0 152.25 66.35
  Q 152.19 66.61 152.29 66.85
  Q 152.42 67.20 152.96 67.41
  Q 155.69 68.50 157.75 66.76
  Q 158.14 66.43 158.22 65.94
  C 158.75 62.98 156.06 62.75 154.09 61.89
  A 1.10 1.10 0.0 0 1 154.64 59.79
  L 157.60 60.10
  A 0.41 0.41 0.0 0 0 157.88 59.36
  C 155.52 57.73 150.00 59.38 153.06 62.70
  A 1.42 1.39 -12.7 0 0 153.69 63.09
  Q 155.39 63.61 156.80 64.71
  A 0.71 0.71 0.0 0 1 156.79 65.84"
/>
<path stroke="#8f8e8f" vector-effect="non-scaling-stroke" d="
  M 166.43 66.14
  C 164.26 66.66 161.85 66.64 161.58 64.20
  Q 161.50 63.50 162.21 63.50
  L 166.77 63.50
  A 0.76 0.76 0.0 0 0 167.52 62.63
  C 166.42 55.27 158.09 59.44 160.25 65.02
  Q 161.78 69.00 166.45 67.40
  Q 166.94 67.23 167.00 66.63
  Q 167.05 65.99 166.43 66.14"
/>
<path stroke="#8f8e8f" vector-effect="non-scaling-stroke" d="
  M 120.9529 59.6966
  A 0.66 0.66 0.0 0 0 120.3080 59.0218
  L 120.2480 59.0204
  A 0.66 0.66 0.0 0 0 119.5732 59.6653
  L 119.4071 66.9834
  A 0.66 0.66 0.0 0 0 120.0520 67.6582
  L 120.1120 67.6596
  A 0.66 0.66 0.0 0 0 120.7868 67.0147
  L 120.9529 59.6966"
/>
<path stroke="#9acda3" vector-effect="non-scaling-stroke" d="
  M 32.4888 71.5670
  A 1.09 1.09 0.0 0 0 31.3969 70.4789
  L 18.6369 70.5011
  A 1.09 1.09 0.0 0 0 17.5488 71.5930
  L 17.5712 84.4130
  A 1.09 1.09 0.0 0 0 18.6631 85.5011
  L 31.4231 85.4789
  A 1.09 1.09 0.0 0 0 32.5112 84.3870
  L 32.4888 71.5670"
/>
<path stroke="#9acda3" vector-effect="non-scaling-stroke" d="
  M 50.5106 71.9231
  A 1.42 1.42 0.0 0 0 49.0931 70.5006
  L 36.9331 70.4794
  A 1.42 1.42 0.0 0 0 35.5106 71.8969
  L 35.4894 84.0569
  A 1.42 1.42 0.0 0 0 36.9069 85.4794
  L 49.0669 85.5006
  A 1.42 1.42 0.0 0 0 50.4894 84.0831
  L 50.5106 71.9231"
/>
<path stroke="#8f8e8f" vector-effect="non-scaling-stroke" d="
  M 182.1372 75.9857
  A 1.77 0.63 131.5 0 0 183.7818 75.0775
  A 1.77 0.63 131.5 0 0 184.4828 73.3343
  A 1.77 0.63 131.5 0 0 182.8382 74.2425
  A 1.77 0.63 131.5 0 0 182.1372 75.9857"
/>
<path stroke="#8f8e8f" vector-effect="non-scaling-stroke" d="
  M 200.67 77.58
  C 193.46 73.20 193.15 88.91 200.35 85.21
  Q 200.90 84.93 201.44 85.22
  L 201.81 85.42
  A 0.47 0.47 0.0 0 0 202.50 85.01
  L 202.50 73.98
  Q 202.50 73.68 202.22 73.58
  Q 202.11 73.54 201.98 73.49
  A 0.54 0.54 0.0 0 0 201.25 74.00
  L 201.25 77.25
  Q 201.25 77.93 200.67 77.58"
/>
<path stroke="#8f8e8f" vector-effect="non-scaling-stroke" d="
  M 85.85 84.17
  C 77.35 86.91 78.03 72.68 85.75 75.68
  Q 86.07 75.81 86.31 75.57
  L 86.56 75.32
  Q 87.02 74.86 86.41 74.62
  C 75.25 70.12 76.22 90.11 86.23 85.10
  A 0.50 0.50 0.0 0 0 85.85 84.17"
/>
<path stroke="#8f8e8f" vector-effect="non-scaling-stroke" d="
  M 150.15 84.26
  C 140.79 86.14 143.35 72.35 150.19 75.77
  A 0.65 0.65 0.0 0 0 150.89 74.68
  C 147.56 72.02 143.14 75.68 142.73 78.71
  C 142.05 83.65 145.21 86.93 150.36 85.36
  Q 150.63 85.28 150.72 85.10
  Q 150.82 84.90 150.78 84.68
  Q 150.67 84.16 150.15 84.26"
/>
<path stroke="#8f8e8f" vector-effect="non-scaling-stroke" d="
  M 205.39 74.26
  L 205.31 75.04
  A 0.54 0.53 -24.9 0 0 206.28 75.39
  Q 206.89 74.52 206.05 73.96
  A 0.43 0.42 20.1 0 0 205.39 74.26"
/>
<path stroke="#8f8e8f" vector-effect="non-scaling-stroke" d="
  M 162.79 77.19
  A 0.25 0.24 -77.9 0 0 162.45 77.42
  L 162.52 84.93
  Q 162.53 85.33 162.87 85.54
  L 163.11 85.68
  Q 163.62 85.99 163.68 85.39
  C 163.87 83.19 163.03 76.49 167.55 78.49
  Q 168.05 78.71 168.07 79.26
  L 168.33 85.10
  Q 168.34 85.39 168.59 85.54
  L 168.89 85.71
  A 0.35 0.34 -68.5 0 0 169.41 85.48
  Q 170.11 82.19 169.43 78.82
  A 2.60 2.60 0.0 0 0 165.56 77.08
  Q 164.23 77.86 162.79 77.19"
/>
<path stroke="#8f8e8f" vector-effect="non-scaling-stroke" d="
  M 174.35 84.27
  C 172.07 82.10 172.73 77.01 177.20 78.33
  Q 177.50 78.42 177.50 78.10
  Q 177.50 77.96 177.50 77.83
  Q 177.51 77.22 176.92 77.05
  C 168.80 74.77 170.72 89.63 177.67 85.00
  A 0.42 0.42 0.0 0 0 177.38 84.23
  L 175.17 84.53
  A 0.99 0.98 62.1 0 1 174.35 84.27"
/>
<path stroke="#8f8e8f" vector-effect="non-scaling-stroke" d="
  M 191.56 78.75
  Q 192.39 77.99 193.43 78.11
  A 0.63 0.62 -35.5 0 0 193.64 76.88
  Q 192.34 76.60 191.15 77.69
  A 0.56 0.55 -48.6 0 1 190.46 77.74
  L 189.61 77.16
  Q 189.00 76.74 189.00 77.48
  L 189.01 85.04
  A 0.73 0.72 -44.6 0 0 190.46 85.05
  L 190.52 81.07
  Q 190.55 79.68 191.56 78.75"
/>
<path stroke="#8f8e8f" vector-effect="non-scaling-stroke" d="
  M 92.89 80.53
  Q 90.27 80.24 88.46 81.87
  A 2.02 2.02 0.0 0 0 89.23 85.30
  Q 91.11 85.87 92.76 85.14
  Q 93.26 84.92 93.72 85.20
  L 94.15 85.45
  Q 94.86 85.88 94.84 85.05
  L 94.70 78.67
  A 1.15 1.13 -73.8 0 0 94.20 77.74
  Q 91.97 76.23 89.43 77.44
  Q 89.25 77.53 89.25 77.73
  Q 89.25 77.89 89.25 78.05
  Q 89.24 78.61 89.76 78.44
  C 90.65 78.16 91.82 77.75 92.66 78.21
  Q 93.67 78.75 93.48 80.07
  Q 93.41 80.59 92.89 80.53"
/>
<path stroke="#8f8e8f" vector-effect="non-scaling-stroke" d="
  M 99.35 78.71
  Q 100.78 77.82 102.15 78.34
  Q 102.74 78.57 102.75 79.20
  L 102.76 85.19
  A 0.33 0.32 84.2 0 0 103.15 85.51
  Q 103.35 85.47 103.50 85.61
  A 0.31 0.31 0.0 0 0 104.03 85.39
  L 104.12 79.91
  A 1.97 1.97 0.0 0 1 106.08 77.97
  C 110.10 77.95 107.18 83.90 108.41 85.36
  Q 108.54 85.52 108.75 85.61
  Q 109.26 85.83 109.34 85.27
  Q 109.74 82.24 109.33 79.17
  C 108.98 76.46 105.90 76.51 104.25 77.93
  Q 103.88 78.25 103.54 77.89
  Q 102.00 76.29 100.00 77.38
  Q 99.56 77.62 99.07 77.53
  L 97.96 77.31
  Q 97.32 77.19 97.37 77.84
  Q 97.77 82.63 97.49 84.00
  Q 97.19 85.44 98.16 85.48
  A 0.53 0.53 0.0 0 0 98.71 84.96
  L 98.82 79.64
  Q 98.83 79.04 99.35 78.71"
/>
<path stroke="#8f8e8f" vector-effect="non-scaling-stroke" d="
  M 113.94 85.06
  C 121.37 89.21 121.04 73.55 114.13 77.40
  Q 113.75 77.61 113.33 77.48
  L 112.59 77.24
  Q 112.00 77.05 112.00 77.67
  L 112.00 88.75
  Q 112.00 89.24 112.49 89.25
  Q 112.62 89.25 112.76 89.25
  Q 113.25 89.24 113.25 88.75
  L 113.25 85.47
  Q 113.25 84.68 113.94 85.06"
/>
<path stroke="#8f8e8f" vector-effect="non-scaling-stroke" d="
  M 126.62 83.90
  Q 125.13 84.97 123.65 84.23
  Q 123.15 83.98 123.10 83.43
  Q 122.87 80.77 123.03 78.06
  Q 123.05 77.64 122.89 77.43
  Q 122.64 77.11 122.18 77.28
  Q 121.75 77.45 121.75 77.92
  L 121.75 83.56
  A 2.32 2.32 0.0 0 0 124.98 85.70
  Q 126.52 85.04 128.19 85.42
  Q 128.76 85.55 128.76 84.97
  L 128.75 77.45
  Q 128.75 77.09 128.39 77.04
  L 128.11 77.00
  Q 127.66 76.94 127.62 77.40
  L 127.14 82.98
  Q 127.09 83.56 126.62 83.90"
/>
<path stroke="#8f8e8f" vector-effect="non-scaling-stroke" d="
  M 132.67 79.85
  A 0.87 0.87 0.0 0 1 133.06 78.19
  L 136.03 78.25
  A 0.53 0.53 0.0 0 0 136.20 77.21
  Q 133.85 76.47 131.66 77.58
  A 1.82 1.82 0.0 0 0 131.66 80.81
  L 135.09 82.59
  A 0.83 0.82 -47.5 0 1 135.15 84.02
  Q 133.44 85.09 131.57 84.10
  A 0.58 0.58 0.0 0 0 130.96 85.09
  C 134.40 87.50 139.84 83.38 135.20 81.07
  Q 133.83 80.39 132.67 79.85"
/>
<path stroke="#8f8e8f" vector-effect="non-scaling-stroke" d="
  M 156.4602 85.7694
  A 4.47 3.97 89.1 0 0 160.3595 81.2376
  A 4.47 3.97 89.1 0 0 156.3198 76.8306
  A 4.47 3.97 89.1 0 0 152.4205 81.3624
  A 4.47 3.97 89.1 0 0 156.4602 85.7694"
/>
<path stroke="#8f8e8f" vector-effect="non-scaling-stroke" d="
  M 183.1920 85.8050
  A 4.50 4.05 87.3 0 0 187.0255 81.1192
  A 4.50 4.05 87.3 0 0 182.7680 76.8150
  A 4.50 4.05 87.3 0 0 178.9345 81.5008
  A 4.50 4.05 87.3 0 0 183.1920 85.8050"
/>
<path stroke="#8f8e8f" vector-effect="non-scaling-stroke" d="
  M 214.15 77.23
  Q 212.15 76.62 210.19 77.33
  Q 209.87 77.45 209.77 77.64
  Q 209.61 77.94 209.81 78.32
  A 0.52 0.52 0.0 0 0 210.54 78.52
  Q 212.62 77.27 214.00 79.07
  A 0.94 0.94 0.0 0 1 213.10 80.57
  Q 209.02 79.91 208.65 83.69
  Q 208.60 84.20 208.95 84.58
  Q 210.79 86.58 213.28 85.21
  Q 213.77 84.95 214.24 85.23
  L 214.64 85.46
  A 0.61 0.61 0.0 0 0 215.57 84.91
  L 215.31 78.73
  A 1.64 1.64 0.0 0 0 214.15 77.23"
/>
<path stroke="#8f8e8f" vector-effect="non-scaling-stroke" d="
  M 206.5566 77.6346
  A 0.37 0.37 0.0 0 0 206.1892 77.2620
  L 205.6492 77.2582
  A 0.37 0.37 0.0 0 0 205.2766 77.6256
  L 205.2234 85.2454
  A 0.37 0.37 0.0 0 0 205.5908 85.6180
  L 206.1308 85.6218
  A 0.37 0.37 0.0 0 0 206.5034 85.2544
  L 206.5566 77.6346"
/>
<path stroke="#8f8e8f" vector-effect="non-scaling-stroke" d="
  M 179.7611 46.6900
  A 5.09 3.81 90.1 0 0 183.5800 41.6066
  A 5.09 3.81 90.1 0 0 179.7789 36.5100
  A 5.09 3.81 90.1 0 0 175.9600 41.5934
  A 5.09 3.81 90.1 0 0 179.7611 46.6900"
/>
<path stroke="#8f8e8f" vector-effect="non-scaling-stroke" d="
  M 263.19 42.39
  A 0.33 0.33 0.0 0 0 263.50 42.81
  L 266.28 42.79
  A 0.33 0.33 0.0 0 0 266.59 42.37
  L 265.18 37.57
  A 0.33 0.33 0.0 0 0 264.55 37.57
  L 263.19 42.39"
/>
<path stroke="#8f8e8f" vector-effect="non-scaling-stroke" d="
  M 221.82 37.33
  L 221.68 46.04
  A 0.39 0.39 0.0 0 0 222.07 46.44
  L 223.45 46.46
  A 4.03 3.97 -89.1 0 0 227.48 42.49
  L 227.50 41.06
  A 4.03 3.97 -89.1 0 0 223.59 36.96
  L 222.21 36.94
  A 0.39 0.39 0.0 0 0 221.82 37.33"
/>
<path stroke="#8f8e8f" vector-effect="non-scaling-stroke" d="
  M 248.76 37.28
  L 248.74 40.22
  A 0.52 0.52 0.0 0 0 249.26 40.74
  L 250.33 40.75
  A 2.17 1.43 0.3 0 0 252.51 39.33
  L 252.51 38.21
  A 2.17 1.43 0.3 0 0 250.35 36.77
  L 249.28 36.76
  A 0.52 0.52 0.0 0 0 248.76 37.28"
/>
<path stroke="#8f8e8f" vector-effect="non-scaling-stroke" d="
  M 90.55 66.30
  Q 92.76 67.11 93.87 65.04
  A 1.19 1.18 8.5 0 0 92.59 63.32
  Q 91.94 63.45 90.97 63.81
  Q 89.37 64.41 90.20 65.99
  A 0.69 0.68 85.9 0 0 90.55 66.30"
/>
<path stroke="#8f8e8f" vector-effect="non-scaling-stroke" d="
  M 107.77 63.19
  L 105.01 63.93
  A 0.65 0.65 0.0 0 0 104.55 64.73
  L 104.65 65.09
  A 1.97 1.96 -15.1 0 0 107.06 66.47
  L 107.27 66.41
  A 1.97 1.96 -15.1 0 0 108.67 64.00
  L 108.57 63.65
  A 0.65 0.65 0.0 0 0 107.77 63.19"
/>
<path stroke="#8f8e8f" vector-effect="non-scaling-stroke" d="
  M 135.24 62.51
  L 138.61 62.27
  A 0.45 0.45 0.0 0 0 139.03 61.78
  L 139.02 61.69
  A 2.05 2.01 85.9 0 0 136.87 59.78
  L 136.61 59.80
  A 2.05 2.01 85.9 0 0 134.75 61.99
  L 134.76 62.09
  A 0.45 0.45 0.0 0 0 135.24 62.51"
/>
<path stroke="#8f8e8f" vector-effect="non-scaling-stroke" d="
  M 161.87 62.31
  L 165.77 62.23
  A 0.25 0.25 0.0 0 0 166.01 61.97
  L 166.01 61.83
  A 2.09 2.07 88.8 0 0 163.89 59.79
  L 163.63 59.79
  A 2.09 2.07 88.8 0 0 161.61 61.93
  L 161.61 62.07
  A 0.25 0.25 0.0 0 0 161.87 62.31"
/>
<path stroke="#8f8e8f" vector-effect="non-scaling-stroke" d="
  M 198.8947 84.6498
  A 3.31 2.44 89.4 0 0 201.2999 81.3144
  A 3.31 2.44 89.4 0 0 198.8253 78.0302
  A 3.31 2.44 89.4 0 0 196.4201 81.3656
  A 3.31 2.44 89.4 0 0 198.8947 84.6498"
/>
<path stroke="#8f8e8f" vector-effect="non-scaling-stroke" d="
  M 89.54 82.49
  A 1.23 1.23 0.0 0 0 90.40 84.55
  Q 92.27 84.64 93.33 83.50
  A 1.28 1.27 21.1 0 0 92.38 81.36
  Q 90.55 81.37 89.54 82.49"
/>
<path stroke="#8f8e8f" vector-effect="non-scaling-stroke" d="
  M 115.6800 84.6100
  A 3.31 2.46 90.0 0 0 118.1400 81.3000
  A 3.31 2.46 90.0 0 0 115.6800 77.9900
  A 3.31 2.46 90.0 0 0 113.2200 81.3000
  A 3.31 2.46 90.0 0 0 115.6800 84.6100"
/>
<path stroke="#8f8e8f" vector-effect="non-scaling-stroke" d="
  M 156.3686 84.6000
  A 3.27 2.52 90.2 0 0 158.9000 81.3388
  A 3.27 2.52 90.2 0 0 156.3914 78.0600
  A 3.27 2.52 90.2 0 0 153.8600 81.3212
  A 3.27 2.52 90.2 0 0 156.3686 84.6000"
/>
<path stroke="#8f8e8f" vector-effect="non-scaling-stroke" d="
  M 183.0080 84.5294
  A 3.23 2.44 91.1 0 0 185.5096 81.3468
  A 3.23 2.44 91.1 0 0 183.1320 78.0706
  A 3.23 2.44 91.1 0 0 180.6304 81.2532
  A 3.23 2.44 91.1 0 0 183.0080 84.5294"
/>
<path stroke="#8f8e8f" vector-effect="non-scaling-stroke" d="
  M 210.36 82.22
  A 1.25 1.25 0.0 0 0 210.93 84.50
  Q 213.66 84.80 214.06 82.18
  A 0.56 0.56 0.0 0 0 213.61 81.55
  Q 211.82 81.22 210.36 82.22"
/>
</g>
<path fill="#ffffff" d="
  M 0.00 0.00
  L 300.00 0.00
  L 300.00 100.00
  L 0.00 100.00
  L 0.00 0.00
  Z
  M 33.27 23.97
  A 8.24 8.24 0.0 0 0 25.03 15.73
  A 8.24 8.24 0.0 0 0 16.79 23.97
  A 8.24 8.24 0.0 0 0 25.03 32.21
  A 8.24 8.24 0.0 0 0 33.27 23.97
  Z
  M 50.5110 17.7031
  A 1.19 1.19 0.0 0 0 49.3231 16.5110
  L 36.7031 16.4890
  A 1.19 1.19 0.0 0 0 35.5110 17.6769
  L 35.4890 30.2969
  A 1.19 1.19 0.0 0 0 36.6769 31.4890
  L 49.2969 31.5110
  A 1.19 1.19 0.0 0 0 50.4890 30.3231
  L 50.5110 17.7031
  Z
  M 68.4480 17.6639
  A 1.20 1.20 0.0 0 0 67.2438 16.4681
  L 54.6639 16.5120
  A 1.20 1.20 0.0 0 0 53.4681 17.7162
  L 53.5120 30.3161
  A 1.20 1.20 0.0 0 0 54.7162 31.5119
  L 67.2961 31.4680
  A 1.20 1.20 0.0 0 0 68.4919 30.2638
  L 68.4480 17.6639
  Z
  M 106.29 46.75
  L 102.21 45.74
  Q 101.75 45.62 101.75 46.09
  L 101.75 47.67
  Q 101.75 48.28 102.31 48.51
  C 110.79 51.98 115.90 42.89 105.96 39.57
  A 1.57 1.57 0.0 0 1 106.38 36.52
  Q 108.22 36.42 109.91 37.22
  A 0.58 0.58 0.0 0 0 110.71 36.90
  L 111.16 35.68
  Q 111.38 35.08 110.80 34.82
  C 106.17 32.71 98.09 35.91 103.48 41.21
  C 104.70 42.41 107.07 42.93 107.98 44.00
  Q 109.24 45.48 106.96 46.67
  A 1.00 1.00 0.0 0 1 106.29 46.75
  Z
  M 179.7600 49.4200
  A 7.83 7.22 90.0 0 0 186.9800 41.5900
  A 7.83 7.22 90.0 0 0 179.7600 33.7600
  A 7.83 7.22 90.0 0 0 172.5400 41.5900
  A 7.83 7.22 90.0 0 0 179.7600 49.4200
  Z
  M 263.18 34.06
  A 0.30 0.30 0.0 0 0 262.89 34.26
  L 257.88 48.60
  A 0.30 0.30 0.0 0 0 258.16 49.00
  L 260.91 49.00
  A 0.30 0.30 0.0 0 0 261.19 48.79
  L 262.11 45.71
  A 0.30 0.30 0.0 0 1 262.39 45.50
  L 267.41 45.50
  A 0.30 0.30 0.0 0 1 267.70 45.72
  L 268.60 48.78
  A 0.30 0.30 0.0 0 0 268.89 49.00
  L 271.64 49.00
  A 0.30 0.30 0.0 0 0 271.92 48.60
  L 266.89 34.32
  A 0.30 0.30 0.0 0 0 266.61 34.12
  L 263.18 34.06
  Z
  M 32.4773 35.6309
  A 1.39 1.39 0.0 0 0 31.0801 34.2482
  L 18.9002 34.3120
  A 1.39 1.39 0.0 0 0 17.5175 35.7093
  L 17.5827 48.1491
  A 1.39 1.39 0.0 0 0 18.9799 49.5318
  L 31.1598 49.4680
  A 1.39 1.39 0.0 0 0 32.5425 48.0707
  L 32.4773 35.6309
  Z
  M 50.5216 35.7762
  A 1.37 1.37 0.0 0 0 49.1564 34.4014
  L 36.9164 34.3587
  A 1.37 1.37 0.0 0 0 35.5417 35.7239
  L 35.4984 48.1038
  A 1.37 1.37 0.0 0 0 36.8636 49.4786
  L 49.1036 49.5213
  A 1.37 1.37 0.0 0 0 50.4783 48.1561
  L 50.5216 35.7762
  Z
  M 82.00 34.57
  A 0.31 0.31 0.0 0 0 81.69 34.26
  L 79.31 34.26
  A 0.31 0.31 0.0 0 0 79.00 34.57
  L 79.00 48.69
  A 0.31 0.31 0.0 0 0 79.31 49.00
  L 81.69 49.00
  A 0.31 0.31 0.0 0 0 82.00 48.69
  L 82.00 34.57
  Z
  M 95.90 44.91
  L 90.01 34.70
  Q 89.75 34.25 89.23 34.25
  L 86.25 34.25
  Q 85.75 34.25 85.75 34.75
  L 85.75 48.38
  Q 85.75 49.00 86.37 49.00
  L 88.00 49.00
  Q 88.50 49.00 88.50 48.50
  L 88.50 39.01
  A 0.32 0.32 0.0 0 1 89.10 38.85
  L 94.64 48.53
  Q 94.91 49.00 95.45 49.00
  L 98.38 49.00
  Q 99.00 49.00 99.00 48.38
  L 99.00 34.87
  Q 99.00 34.25 98.37 34.25
  L 96.86 34.25
  Q 96.22 34.25 96.21 34.89
  L 96.14 44.85
  A 0.13 0.13 0.0 0 1 95.90 44.91
  Z
  M 120.01 37.12
  A 0.37 0.37 0.0 0 1 120.38 36.75
  L 123.63 36.75
  A 0.37 0.37 0.0 0 0 124.00 36.38
  L 124.00 34.62
  A 0.37 0.37 0.0 0 0 123.63 34.25
  L 113.33 34.25
  A 0.37 0.37 0.0 0 0 112.97 34.58
  L 112.78 36.34
  A 0.37 0.37 0.0 0 0 113.15 36.75
  L 116.35 36.75
  A 0.37 0.37 0.0 0 1 116.72 37.12
  L 116.82 48.63
  A 0.37 0.37 0.0 0 0 117.19 49.00
  L 119.63 49.00
  A 0.37 0.37 0.0 0 0 120.00 48.63
  L 120.01 37.12
  Z
  M 129.50 34.70
  A 0.44 0.44 0.0 0 0 129.06 34.26
  L 126.94 34.26
  A 0.44 0.44 0.0 0 0 126.50 34.70
  L 126.50 48.58
  A 0.44 0.44 0.0 0 0 126.94 49.02
  L 129.06 49.02
  A 0.44 0.44 0.0 0 0 129.50 48.58
  L 129.50 34.70
  Z
  M 135.57 36.75
  A 0.44 0.44 0.0 0 1 136.01 37.19
  L 135.98 48.56
  A 0.44 0.44 0.0 0 0 136.42 49.00
  L 138.56 49.00
  A 0.44 0.44 0.0 0 0 139.00 48.56
  L 139.00 37.19
  A 0.44 0.44 0.0 0 1 139.44 36.75
  L 142.56 36.75
  A 0.44 0.44 0.0 0 0 143.00 36.31
  L 143.00 34.69
  A 0.44 0.44 0.0 0 0 142.56 34.25
  L 132.44 34.25
  A 0.44 0.44 0.0 0 0 132.00 34.69
  L 132.00 36.31
  A 0.44 0.44 0.0 0 0 132.44 36.75
  L 135.57 36.75
  Z
  M 154.03 45.11
  C 152.80 47.57 148.51 47.04 148.51 43.73
  Q 148.51 39.38 148.49 34.93
  Q 148.49 34.25 147.80 34.25
  L 146.02 34.25
  Q 145.50 34.25 145.50 34.77
  C 145.51 40.10 143.19 50.70 152.82 49.07
  C 159.40 47.96 157.53 39.55 157.49 34.75
  Q 157.49 34.25 156.98 34.25
  L 155.01 34.25
  Q 154.49 34.25 154.49 34.77
  C 154.51 37.23 155.05 43.05 154.03 45.11
  Z
  M 163.19 36.75
  A 0.56 0.56 0.0 0 1 163.75 37.31
  L 163.75 48.44
  A 0.56 0.56 0.0 0 0 164.31 49.00
  L 166.44 49.00
  A 0.56 0.56 0.0 0 0 167.00 48.44
  L 167.00 37.30
  A 0.56 0.56 0.0 0 1 167.57 36.74
  L 170.41 36.77
  A 0.56 0.56 0.0 0 0 170.97 36.23
  L 171.01 34.82
  A 0.56 0.56 0.0 0 0 170.45 34.25
  L 160.31 34.25
  A 0.56 0.56 0.0 0 0 159.75 34.81
  L 159.75 36.19
  A 0.56 0.56 0.0 0 0 160.31 36.75
  L 163.19 36.75
  Z
  M 198.82 40.75
  A 0.32 0.32 0.0 0 1 198.50 40.43
  L 198.50 37.07
  A 0.32 0.32 0.0 0 1 198.82 36.75
  L 203.43 36.75
  A 0.32 0.32 0.0 0 0 203.75 36.43
  L 203.75 34.57
  A 0.32 0.32 0.0 0 0 203.43 34.25
  L 195.82 34.25
  A 0.32 0.32 0.0 0 0 195.50 34.57
  L 195.50 48.68
  A 0.32 0.32 0.0 0 0 195.82 49.00
  L 198.18 49.00
  A 0.32 0.32 0.0 0 0 198.50 48.68
  L 198.50 43.57
  A 0.32 0.32 0.0 0 1 198.82 43.25
  L 203.12 43.25
  A 0.32 0.32 0.0 0 0 203.44 42.93
  L 203.44 41.07
  A 0.32 0.32 0.0 0 0 203.12 40.75
  L 198.82 40.75
  Z
  M 210.37 46.50
  A 0.37 0.37 0.0 0 1 210.00 46.13
  L 210.00 43.16
  A 0.37 0.37 0.0 0 1 210.34 42.80
  L 214.66 42.48
  A 0.37 0.37 0.0 0 0 215.00 42.12
  L 215.00 40.37
  A 0.37 0.37 0.0 0 0 214.63 40.00
  L 210.37 40.00
  A 0.37 0.37 0.0 0 1 210.00 39.63
  L 210.00 37.12
  A 0.37 0.37 0.0 0 1 210.37 36.75
  L 214.83 36.75
  A 0.37 0.37 0.0 0 0 215.19 36.42
  L 215.37 34.66
  A 0.37 0.37 0.0 0 0 215.00 34.25
  L 207.37 34.25
  A 0.37 0.37 0.0 0 0 207.00 34.62
  L 207.00 48.63
  A 0.37 0.37 0.0 0 0 207.37 49.00
  L 215.12 49.00
  A 0.37 0.37 0.0 0 0 215.48 48.56
  L 215.16 46.80
  A 0.37 0.37 0.0 0 0 214.80 46.50
  L 210.37 46.50
  Z
  M 218.50 34.64
  L 218.50 48.56
  A 0.42 0.42 0.0 0 0 218.92 48.98
  L 223.94 48.98
  A 6.82 6.65 -0.0 0 0 230.76 42.33
  L 230.76 40.87
  A 6.82 6.65 0.0 0 0 223.94 34.22
  L 218.92 34.22
  A 0.42 0.42 0.0 0 0 218.50 34.64
  Z
  M 237.00 43.07
  A 0.44 0.44 0.0 0 1 237.45 42.63
  L 241.46 42.72
  A 0.44 0.44 0.0 0 0 241.91 42.34
  L 242.15 40.50
  A 0.44 0.44 0.0 0 0 241.71 40.00
  L 237.44 40.00
  A 0.44 0.44 0.0 0 1 237.00 39.56
  L 237.00 37.19
  A 0.44 0.44 0.0 0 1 237.44 36.75
  L 242.06 36.75
  A 0.44 0.44 0.0 0 0 242.50 36.31
  L 242.50 34.69
  A 0.44 0.44 0.0 0 0 242.06 34.25
  L 234.44 34.25
  A 0.44 0.44 0.0 0 0 234.00 34.69
  L 234.00 48.56
  A 0.44 0.44 0.0 0 0 234.44 49.00
  L 242.06 49.00
  A 0.44 0.44 0.0 0 0 242.50 48.56
  L 242.50 46.94
  A 0.44 0.44 0.0 0 0 242.06 46.50
  L 237.44 46.50
  A 0.44 0.44 0.0 0 1 237.00 46.06
  L 237.00 43.07
  Z
  M 248.75 44.16
  A 1.00 0.99 -61.3 0 1 250.58 43.62
  L 253.73 48.56
  Q 254.01 49.00 254.53 49.00
  L 256.75 49.00
  Q 257.41 49.00 257.05 48.45
  L 253.52 43.14
  Q 253.11 42.53 253.74 42.15
  L 254.46 41.72
  Q 254.83 41.49 255.06 41.12
  Q 256.40 39.02 255.68 37.05
  C 254.40 33.57 249.30 34.16 246.21 34.29
  Q 245.75 34.31 245.75 34.76
  L 245.75 48.47
  Q 245.75 49.00 246.28 49.00
  L 248.25 49.00
  Q 248.75 49.00 248.75 48.50
  L 248.75 44.16
  Z
  M 277.32 46.50
  A 0.32 0.32 0.0 0 1 277.00 46.18
  L 277.00 34.57
  A 0.32 0.32 0.0 0 0 276.68 34.25
  L 274.32 34.25
  A 0.32 0.32 0.0 0 0 274.00 34.57
  L 274.00 48.68
  A 0.32 0.32 0.0 0 0 274.32 49.00
  L 282.68 49.00
  A 0.32 0.32 0.0 0 0 283.00 48.68
  L 283.00 46.82
  A 0.32 0.32 0.0 0 0 282.68 46.50
  L 277.32 46.50
  Z
  M 32.5222 53.6559
  A 1.13 1.13 0.0 0 0 31.3961 52.5220
  L 18.8162 52.4781
  A 1.13 1.13 0.0 0 0 17.6822 53.6041
  L 17.6378 66.3241
  A 1.13 1.13 0.0 0 0 18.7639 67.4580
  L 31.3438 67.5019
  A 1.13 1.13 0.0 0 0 32.4778 66.3759
  L 32.5222 53.6559
  Z
  M 50.4993 53.8369
  A 1.36 1.36 0.0 0 0 49.1369 52.4793
  L 36.8569 52.5007
  A 1.36 1.36 0.0 0 0 35.4993 53.8631
  L 35.5207 66.1431
  A 1.36 1.36 0.0 0 0 36.8831 67.5007
  L 49.1631 67.4793
  A 1.36 1.36 0.0 0 0 50.5207 66.1169
  L 50.4993 53.8369
  Z
  M 68.4808 53.8231
  A 1.32 1.32 0.0 0 0 67.1631 52.5008
  L 54.8231 52.4792
  A 1.32 1.32 0.0 0 0 53.5008 53.7969
  L 53.4792 66.1569
  A 1.32 1.32 0.0 0 0 54.7969 67.4792
  L 67.1369 67.5008
  A 1.32 1.32 0.0 0 0 68.4592 66.1831
  L 68.4808 53.8231
  Z
  M 86.23 66.19
  C 76.92 68.31 78.27 54.76 86.01 57.34
  Q 86.40 57.48 86.69 57.18
  L 86.95 56.92
  A 0.35 0.35 0.0 0 0 86.84 56.35
  C 75.87 51.92 75.40 71.34 86.52 67.19
  A 0.52 0.52 0.0 0 0 86.23 66.19
  Z
  M 120.97 56.50
  A 0.77 0.77 0.0 0 0 120.20 55.73
  A 0.77 0.77 0.0 0 0 119.43 56.50
  A 0.77 0.77 0.0 0 0 120.20 57.27
  A 0.77 0.77 0.0 0 0 120.97 56.50
  Z
  M 99.50 58.19
  Q 99.61 57.54 99.35 56.96
  Q 99.09 56.38 98.80 56.94
  L 97.71 59.01
  Q 97.51 59.40 97.67 59.80
  C 99.05 63.06 96.32 67.61 101.47 67.80
  A 0.62 0.62 0.0 0 0 101.56 66.57
  L 100.29 66.44
  A 0.83 0.82 2.7 0 1 99.54 65.62
  L 99.48 60.67
  Q 99.47 60.05 100.08 59.96
  L 101.59 59.71
  A 0.48 0.48 0.0 0 0 101.52 58.75
  L 99.98 58.75
  A 0.49 0.48 4.5 0 1 99.50 58.19
  Z
  M 93.16 62.24
  C 85.57 62.27 88.42 69.97 93.14 67.18
  Q 93.56 66.93 94.01 67.14
  L 94.79 67.52
  Q 95.33 67.78 95.38 67.18
  Q 95.78 62.94 95.39 60.93
  C 94.88 58.33 91.26 58.04 89.74 59.50
  A 0.49 0.48 11.4 0 0 90.27 60.29
  Q 91.89 59.61 93.45 60.03
  A 1.13 1.12 -37.6 0 1 93.16 62.24
  Z
  M 108.41 60.32
  A 1.25 1.24 68.2 0 1 107.44 62.58
  C 100.60 60.84 103.41 71.18 108.00 66.98
  Q 108.36 66.65 108.75 66.94
  L 109.61 67.58
  Q 110.21 68.03 110.23 67.28
  C 110.32 63.93 111.23 55.50 104.33 59.48
  A 0.23 0.22 -33.7 0 0 104.26 59.81
  L 104.51 60.14
  A 0.40 0.40 0.0 0 0 105.02 60.26
  Q 106.84 59.33 108.41 60.32
  Z
  M 114.08 59.45
  L 113.58 58.95
  Q 112.91 58.28 112.90 59.23
  L 112.81 66.95
  Q 112.81 67.52 113.37 67.50
  Q 113.56 67.50 113.74 67.50
  A 0.45 0.45 0.0 0 0 114.20 67.06
  L 114.35 61.47
  A 1.06 1.06 0.0 0 1 115.06 60.50
  L 117.69 59.59
  A 0.41 0.40 -48.2 0 0 117.65 58.81
  Q 116.15 58.46 115.05 59.47
  Q 114.55 59.93 114.08 59.45
  Z
  M 130.70 60.71
  C 130.35 58.40 127.29 58.27 125.87 59.37
  Q 125.47 59.67 125.06 59.39
  L 124.36 58.91
  Q 123.75 58.49 123.75 59.23
  L 123.75 67.23
  A 0.50 0.50 0.0 0 0 124.75 67.32
  C 125.22 64.74 123.77 58.85 128.63 60.00
  A 1.03 1.01 -85.2 0 1 129.42 60.95
  L 129.73 67.00
  A 0.61 0.61 0.0 0 0 130.94 67.01
  Q 131.16 63.84 130.70 60.71
  Z
  M 135.06 63.50
  L 139.33 63.50
  A 1.43 1.43 0.0 0 0 140.52 61.28
  Q 138.29 57.90 135.47 59.12
  C 130.61 61.22 133.88 70.51 139.94 67.01
  A 0.48 0.48 0.0 0 0 139.51 66.15
  Q 136.08 67.57 134.53 64.34
  Q 134.13 63.50 135.06 63.50
  Z
  M 144.14 59.24
  L 143.34 58.99
  Q 142.78 58.81 142.77 59.40
  Q 142.73 63.02 142.75 66.65
  Q 142.75 67.09 142.93 67.30
  Q 143.17 67.58 143.59 67.52
  Q 144.05 67.45 144.07 66.99
  L 144.27 61.83
  A 2.15 2.15 0.0 0 1 146.10 59.79
  C 149.86 59.26 148.77 65.00 148.75 67.20
  Q 148.74 67.50 149.04 67.50
  L 149.48 67.50
  Q 149.97 67.50 149.98 67.00
  C 150.04 62.78 151.65 57.55 144.90 59.27
  Q 144.51 59.36 144.14 59.24
  Z
  M 156.79 65.84
  Q 154.97 67.19 152.91 66.04
  A 0.45 0.45 0.0 0 0 152.25 66.35
  Q 152.19 66.61 152.29 66.85
  Q 152.42 67.20 152.96 67.41
  Q 155.69 68.50 157.75 66.76
  Q 158.14 66.43 158.22 65.94
  C 158.75 62.98 156.06 62.75 154.09 61.89
  A 1.10 1.10 0.0 0 1 154.64 59.79
  L 157.60 60.10
  A 0.41 0.41 0.0 0 0 157.88 59.36
  C 155.52 57.73 150.00 59.38 153.06 62.70
  A 1.42 1.39 -12.7 0 0 153.69 63.09
  Q 155.39 63.61 156.80 64.71
  A 0.71 0.71 0.0 0 1 156.79 65.84
  Z
  M 166.43 66.14
  C 164.26 66.66 161.85 66.64 161.58 64.20
  Q 161.50 63.50 162.21 63.50
  L 166.77 63.50
  A 0.76 0.76 0.0 0 0 167.52 62.63
  C 166.42 55.27 158.09 59.44 160.25 65.02
  Q 161.78 69.00 166.45 67.40
  Q 166.94 67.23 167.00 66.63
  Q 167.05 65.99 166.43 66.14
  Z
  M 120.9529 59.6966
  A 0.66 0.66 0.0 0 0 120.3080 59.0218
  L 120.2480 59.0204
  A 0.66 0.66 0.0 0 0 119.5732 59.6653
  L 119.4071 66.9834
  A 0.66 0.66 0.0 0 0 120.0520 67.6582
  L 120.1120 67.6596
  A 0.66 0.66 0.0 0 0 120.7868 67.0147
  L 120.9529 59.6966
  Z
  M 32.4888 71.5670
  A 1.09 1.09 0.0 0 0 31.3969 70.4789
  L 18.6369 70.5011
  A 1.09 1.09 0.0 0 0 17.5488 71.5930
  L 17.5712 84.4130
  A 1.09 1.09 0.0 0 0 18.6631 85.5011
  L 31.4231 85.4789
  A 1.09 1.09 0.0 0 0 32.5112 84.3870
  L 32.4888 71.5670
  Z
  M 50.5106 71.9231
  A 1.42 1.42 0.0 0 0 49.0931 70.5006
  L 36.9331 70.4794
  A 1.42 1.42 0.0 0 0 35.5106 71.8969
  L 35.4894 84.0569
  A 1.42 1.42 0.0 0 0 36.9069 85.4794
  L 49.0669 85.5006
  A 1.42 1.42 0.0 0 0 50.4894 84.0831
  L 50.5106 71.9231
  Z
  M 182.1372 75.9857
  A 1.77 0.63 131.5 0 0 183.7818 75.0775
  A 1.77 0.63 131.5 0 0 184.4828 73.3343
  A 1.77 0.63 131.5 0 0 182.8382 74.2425
  A 1.77 0.63 131.5 0 0 182.1372 75.9857
  Z
  M 200.67 77.58
  C 193.46 73.20 193.15 88.91 200.35 85.21
  Q 200.90 84.93 201.44 85.22
  L 201.81 85.42
  A 0.47 0.47 0.0 0 0 202.50 85.01
  L 202.50 73.98
  Q 202.50 73.68 202.22 73.58
  Q 202.11 73.54 201.98 73.49
  A 0.54 0.54 0.0 0 0 201.25 74.00
  L 201.25 77.25
  Q 201.25 77.93 200.67 77.58
  Z
  M 85.85 84.17
  C 77.35 86.91 78.03 72.68 85.75 75.68
  Q 86.07 75.81 86.31 75.57
  L 86.56 75.32
  Q 87.02 74.86 86.41 74.62
  C 75.25 70.12 76.22 90.11 86.23 85.10
  A 0.50 0.50 0.0 0 0 85.85 84.17
  Z
  M 150.15 84.26
  C 140.79 86.14 143.35 72.35 150.19 75.77
  A 0.65 0.65 0.0 0 0 150.89 74.68
  C 147.56 72.02 143.14 75.68 142.73 78.71
  C 142.05 83.65 145.21 86.93 150.36 85.36
  Q 150.63 85.28 150.72 85.10
  Q 150.82 84.90 150.78 84.68
  Q 150.67 84.16 150.15 84.26
  Z
  M 205.39 74.26
  L 205.31 75.04
  A 0.54 0.53 -24.9 0 0 206.28 75.39
  Q 206.89 74.52 206.05 73.96
  A 0.43 0.42 20.1 0 0 205.39 74.26
  Z
  M 162.79 77.19
  A 0.25 0.24 -77.9 0 0 162.45 77.42
  L 162.52 84.93
  Q 162.53 85.33 162.87 85.54
  L 163.11 85.68
  Q 163.62 85.99 163.68 85.39
  C 163.87 83.19 163.03 76.49 167.55 78.49
  Q 168.05 78.71 168.07 79.26
  L 168.33 85.10
  Q 168.34 85.39 168.59 85.54
  L 168.89 85.71
  A 0.35 0.34 -68.5 0 0 169.41 85.48
  Q 170.11 82.19 169.43 78.82
  A 2.60 2.60 0.0 0 0 165.56 77.08
  Q 164.23 77.86 162.79 77.19
  Z
  M 174.35 84.27
  C 172.07 82.10 172.73 77.01 177.20 78.33
  Q 177.50 78.42 177.50 78.10
  Q 177.50 77.96 177.50 77.83
  Q 177.51 77.22 176.92 77.05
  C 168.80 74.77 170.72 89.63 177.67 85.00
  A 0.42 0.42 0.0 0 0 177.38 84.23
  L 175.17 84.53
  A 0.99 0.98 62.1 0 1 174.35 84.27
  Z
  M 191.56 78.75
  Q 192.39 77.99 193.43 78.11
  A 0.63 0.62 -35.5 0 0 193.64 76.88
  Q 192.34 76.60 191.15 77.69
  A 0.56 0.55 -48.6 0 1 190.46 77.74
  L 189.61 77.16
  Q 189.00 76.74 189.00 77.48
  L 189.01 85.04
  A 0.73 0.72 -44.6 0 0 190.46 85.05
  L 190.52 81.07
  Q 190.55 79.68 191.56 78.75
  Z
  M 92.89 80.53
  Q 90.27 80.24 88.46 81.87
  A 2.02 2.02 0.0 0 0 89.23 85.30
  Q 91.11 85.87 92.76 85.14
  Q 93.26 84.92 93.72 85.20
  L 94.15 85.45
  Q 94.86 85.88 94.84 85.05
  L 94.70 78.67
  A 1.15 1.13 -73.8 0 0 94.20 77.74
  Q 91.97 76.23 89.43 77.44
  Q 89.25 77.53 89.25 77.73
  Q 89.25 77.89 89.25 78.05
  Q 89.24 78.61 89.76 78.44
  C 90.65 78.16 91.82 77.75 92.66 78.21
  Q 93.67 78.75 93.48 80.07
  Q 93.41 80.59 92.89 80.53
  Z
  M 99.35 78.71
  Q 100.78 77.82 102.15 78.34
  Q 102.74 78.57 102.75 79.20
  L 102.76 85.19
  A 0.33 0.32 84.2 0 0 103.15 85.51
  Q 103.35 85.47 103.50 85.61
  A 0.31 0.31 0.0 0 0 104.03 85.39
  L 104.12 79.91
  A 1.97 1.97 0.0 0 1 106.08 77.97
  C 110.10 77.95 107.18 83.90 108.41 85.36
  Q 108.54 85.52 108.75 85.61
  Q 109.26 85.83 109.34 85.27
  Q 109.74 82.24 109.33 79.17
  C 108.98 76.46 105.90 76.51 104.25 77.93
  Q 103.88 78.25 103.54 77.89
  Q 102.00 76.29 100.00 77.38
  Q 99.56 77.62 99.07 77.53
  L 97.96 77.31
  Q 97.32 77.19 97.37 77.84
  Q 97.77 82.63 97.49 84.00
  Q 97.19 85.44 98.16 85.48
  A 0.53 0.53 0.0 0 0 98.71 84.96
  L 98.82 79.64
  Q 98.83 79.04 99.35 78.71
  Z
  M 113.94 85.06
  C 121.37 89.21 121.04 73.55 114.13 77.40
  Q 113.75 77.61 113.33 77.48
  L 112.59 77.24
  Q 112.00 77.05 112.00 77.67
  L 112.00 88.75
  Q 112.00 89.24 112.49 89.25
  Q 112.62 89.25 112.76 89.25
  Q 113.25 89.24 113.25 88.75
  L 113.25 85.47
  Q 113.25 84.68 113.94 85.06
  Z
  M 126.62 83.90
  Q 125.13 84.97 123.65 84.23
  Q 123.15 83.98 123.10 83.43
  Q 122.87 80.77 123.03 78.06
  Q 123.05 77.64 122.89 77.43
  Q 122.64 77.11 122.18 77.28
  Q 121.75 77.45 121.75 77.92
  L 121.75 83.56
  A 2.32 2.32 0.0 0 0 124.98 85.70
  Q 126.52 85.04 128.19 85.42
  Q 128.76 85.55 128.76 84.97
  L 128.75 77.45
  Q 128.75 77.09 128.39 77.04
  L 128.11 77.00
  Q 127.66 76.94 127.62 77.40
  L 127.14 82.98
  Q 127.09 83.56 126.62 83.90
  Z
  M 132.67 79.85
  A 0.87 0.87 0.0 0 1 133.06 78.19
  L 136.03 78.25
  A 0.53 0.53 0.0 0 0 136.20 77.21
  Q 133.85 76.47 131.66 77.58
  A 1.82 1.82 0.0 0 0 131.66 80.81
  L 135.09 82.59
  A 0.83 0.82 -47.5 0 1 135.15 84.02
  Q 133.44 85.09 131.57 84.10
  A 0.58 0.58 0.0 0 0 130.96 85.09
  C 134.40 87.50 139.84 83.38 135.20 81.07
  Q 133.83 80.39 132.67 79.85
  Z
  M 156.4602 85.7694
  A 4.47 3.97 89.1 0 0 160.3595 81.2376
  A 4.47 3.97 89.1 0 0 156.3198 76.8306
  A 4.47 3.97 89.1 0 0 152.4205 81.3624
  A 4.47 3.97 89.1 0 0 156.4602 85.7694
  Z
  M 183.1920 85.8050
  A 4.50 4.05 87.3 0 0 187.0255 81.1192
  A 4.50 4.05 87.3 0 0 182.7680 76.8150
  A 4.50 4.05 87.3 0 0 178.9345 81.5008
  A 4.50 4.05 87.3 0 0 183.1920 85.8050
  Z
  M 214.15 77.23
  Q 212.15 76.62 210.19 77.33
  Q 209.87 77.45 209.77 77.64
  Q 209.61 77.94 209.81 78.32
  A 0.52 0.52 0.0 0 0 210.54 78.52
  Q 212.62 77.27 214.00 79.07
  A 0.94 0.94 0.0 0 1 213.10 80.57
  Q 209.02 79.91 208.65 83.69
  Q 208.60 84.20 208.95 84.58
  Q 210.79 86.58 213.28 85.21
  Q 213.77 84.95 214.24 85.23
  L 214.64 85.46
  A 0.61 0.61 0.0 0 0 215.57 84.91
  L 215.31 78.73
  A 1.64 1.64 0.0 0 0 214.15 77.23
  Z
  M 206.5566 77.6346
  A 0.37 0.37 0.0 0 0 206.1892 77.2620
  L 205.6492 77.2582
  A 0.37 0.37 0.0 0 0 205.2766 77.6256
  L 205.2234 85.2454
  A 0.37 0.37 0.0 0 0 205.5908 85.6180
  L 206.1308 85.6218
  A 0.37 0.37 0.0 0 0 206.5034 85.2544
  L 206.5566 77.6346
  Z"
/>
<circle fill="#ca2027" cx="25.03" cy="23.97" r="8.24"/>
<rect fill="#349a46" x="-7.50" y="-7.50" transform="translate(43.00,24.00) rotate(0.1)" width="15.00" height="15.00" rx="1.19"/>
<rect fill="#349a46" x="-7.49" y="-7.50" transform="translate(60.98,23.99) rotate(-0.2)" width="14.98" height="15.00" rx="1.20"/>
<path fill="#1e1d1e" d="
  M 106.29 46.75
  A 1.00 1.00 0.0 0 0 106.96 46.67
  Q 109.24 45.48 107.98 44.00
  C 107.07 42.93 104.70 42.41 103.48 41.21
  C 98.09 35.91 106.17 32.71 110.80 34.82
  Q 111.38 35.08 111.16 35.68
  L 110.71 36.90
  A 0.58 0.58 0.0 0 1 109.91 37.22
  Q 108.22 36.42 106.38 36.52
  A 1.57 1.57 0.0 0 0 105.96 39.57
  C 115.90 42.89 110.79 51.98 102.31 48.51
  Q 101.75 48.28 101.75 47.67
  L 101.75 46.09
  Q 101.75 45.62 102.21 45.74
  L 106.29 46.75
  Z"
/>
<path fill="#1e1d1e" d="
  M 179.7600 49.4200
  A 7.83 7.22 90.0 0 1 172.5400 41.5900
  A 7.83 7.22 90.0 0 1 179.7600 33.7600
  A 7.83 7.22 90.0 0 1 186.9800 41.5900
  A 7.83 7.22 90.0 0 1 179.7600 49.4200
  Z
  M 179.7611 46.6900
  A 5.09 3.81 90.1 0 0 183.5800 41.6066
  A 5.09 3.81 90.1 0 0 179.7789 36.5100
  A 5.09 3.81 90.1 0 0 175.9600 41.5934
  A 5.09 3.81 90.1 0 0 179.7611 46.6900
  Z"
/>
<path fill="#1e1d1e" d="
  M 263.18 34.06
  L 266.61 34.12
  A 0.30 0.30 0.0 0 1 266.89 34.32
  L 271.92 48.60
  A 0.30 0.30 0.0 0 1 271.64 49.00
  L 268.89 49.00
  A 0.30 0.30 0.0 0 1 268.60 48.78
  L 267.70 45.72
  A 0.30 0.30 0.0 0 0 267.41 45.50
  L 262.39 45.50
  A 0.30 0.30 0.0 0 0 262.11 45.71
  L 261.19 48.79
  A 0.30 0.30 0.0 0 1 260.91 49.00
  L 258.16 49.00
  A 0.30 0.30 0.0 0 1 257.88 48.60
  L 262.89 34.26
  A 0.30 0.30 0.0 0 1 263.18 34.06
  Z
  M 263.19 42.39
  A 0.33 0.33 0.0 0 0 263.50 42.81
  L 266.28 42.79
  A 0.33 0.33 0.0 0 0 266.59 42.37
  L 265.18 37.57
  A 0.33 0.33 0.0 0 0 264.55 37.57
  L 263.19 42.39
  Z"
/>
<rect fill="#349a46" x="-7.48" y="-7.61" transform="translate(25.03,41.89) rotate(-0.3)" width="14.96" height="15.22" rx="1.39"/>
<rect fill="#349a46" x="-7.49" y="-7.56" transform="translate(43.01,41.94) rotate(0.2)" width="14.98" height="15.12" rx="1.37"/>
<rect fill="#1e1d1e" x="79.00" y="34.26" width="3.00" height="14.74" rx="0.31"/>
<path fill="#1e1d1e" d="
  M 95.90 44.91
  A 0.13 0.13 0.0 0 0 96.14 44.85
  L 96.21 34.89
  Q 96.22 34.25 96.86 34.25
  L 98.37 34.25
  Q 99.00 34.25 99.00 34.87
  L 99.00 48.38
  Q 99.00 49.00 98.38 49.00
  L 95.45 49.00
  Q 94.91 49.00 94.64 48.53
  L 89.10 38.85
  A 0.32 0.32 0.0 0 0 88.50 39.01
  L 88.50 48.50
  Q 88.50 49.00 88.00 49.00
  L 86.37 49.00
  Q 85.75 49.00 85.75 48.38
  L 85.75 34.75
  Q 85.75 34.25 86.25 34.25
  L 89.23 34.25
  Q 89.75 34.25 90.01 34.70
  L 95.90 44.91
  Z"
/>
<path fill="#1e1d1e" d="
  M 120.01 37.12
  L 120.00 48.63
  A 0.37 0.37 0.0 0 1 119.63 49.00
  L 117.19 49.00
  A 0.37 0.37 0.0 0 1 116.82 48.63
  L 116.72 37.12
  A 0.37 0.37 0.0 0 0 116.35 36.75
  L 113.15 36.75
  A 0.37 0.37 0.0 0 1 112.78 36.34
  L 112.97 34.58
  A 0.37 0.37 0.0 0 1 113.33 34.25
  L 123.63 34.25
  A 0.37 0.37 0.0 0 1 124.00 34.62
  L 124.00 36.38
  A 0.37 0.37 0.0 0 1 123.63 36.75
  L 120.38 36.75
  A 0.37 0.37 0.0 0 0 120.01 37.12
  Z"
/>
<rect fill="#1e1d1e" x="126.50" y="34.26" width="3.00" height="14.76" rx="0.44"/>
<path fill="#1e1d1e" d="
  M 135.57 36.75
  L 132.44 36.75
  A 0.44 0.44 0.0 0 1 132.00 36.31
  L 132.00 34.69
  A 0.44 0.44 0.0 0 1 132.44 34.25
  L 142.56 34.25
  A 0.44 0.44 0.0 0 1 143.00 34.69
  L 143.00 36.31
  A 0.44 0.44 0.0 0 1 142.56 36.75
  L 139.44 36.75
  A 0.44 0.44 0.0 0 0 139.00 37.19
  L 139.00 48.56
  A 0.44 0.44 0.0 0 1 138.56 49.00
  L 136.42 49.00
  A 0.44 0.44 0.0 0 1 135.98 48.56
  L 136.01 37.19
  A 0.44 0.44 0.0 0 0 135.57 36.75
  Z"
/>
<path fill="#1e1d1e" d="
  M 148.51 43.73
  C 148.51 47.04 152.80 47.57 154.03 45.11
  C 155.05 43.05 154.51 37.23 154.49 34.77
  Q 154.49 34.25 155.01 34.25
  L 156.98 34.25
  Q 157.49 34.25 157.49 34.75
  C 157.53 39.55 159.40 47.96 152.82 49.07
  C 143.19 50.70 145.51 40.10 145.50 34.77
  Q 145.50 34.25 146.02 34.25
  L 147.80 34.25
  Q 148.49 34.25 148.49 34.93
  Q 148.51 39.38 148.51 43.73
  Z"
/>
<path fill="#1e1d1e" d="
  M 163.19 36.75
  L 160.31 36.75
  A 0.56 0.56 0.0 0 1 159.75 36.19
  L 159.75 34.81
  A 0.56 0.56 0.0 0 1 160.31 34.25
  L 170.45 34.25
  A 0.56 0.56 0.0 0 1 171.01 34.82
  L 170.97 36.23
  A 0.56 0.56 0.0 0 1 170.41 36.77
  L 167.57 36.74
  A 0.56 0.56 0.0 0 0 167.00 37.30
  L 167.00 48.44
  A 0.56 0.56 0.0 0 1 166.44 49.00
  L 164.31 49.00
  A 0.56 0.56 0.0 0 1 163.75 48.44
  L 163.75 37.31
  A 0.56 0.56 0.0 0 0 163.19 36.75
  Z"
/>
<path fill="#1e1d1e" d="
  M 198.82 40.75
  L 203.12 40.75
  A 0.32 0.32 0.0 0 1 203.44 41.07
  L 203.44 42.93
  A 0.32 0.32 0.0 0 1 203.12 43.25
  L 198.82 43.25
  A 0.32 0.32 0.0 0 0 198.50 43.57
  L 198.50 48.68
  A 0.32 0.32 0.0 0 1 198.18 49.00
  L 195.82 49.00
  A 0.32 0.32 0.0 0 1 195.50 48.68
  L 195.50 34.57
  A 0.32 0.32 0.0 0 1 195.82 34.25
  L 203.43 34.25
  A 0.32 0.32 0.0 0 1 203.75 34.57
  L 203.75 36.43
  A 0.32 0.32 0.0 0 1 203.43 36.75
  L 198.82 36.75
  A 0.32 0.32 0.0 0 0 198.50 37.07
  L 198.50 40.43
  A 0.32 0.32 0.0 0 0 198.82 40.75
  Z"
/>
<path fill="#1e1d1e" d="
  M 210.37 46.50
  L 214.80 46.50
  A 0.37 0.37 0.0 0 1 215.16 46.80
  L 215.48 48.56
  A 0.37 0.37 0.0 0 1 215.12 49.00
  L 207.37 49.00
  A 0.37 0.37 0.0 0 1 207.00 48.63
  L 207.00 34.62
  A 0.37 0.37 0.0 0 1 207.37 34.25
  L 215.00 34.25
  A 0.37 0.37 0.0 0 1 215.37 34.66
  L 215.19 36.42
  A 0.37 0.37 0.0 0 1 214.83 36.75
  L 210.37 36.75
  A 0.37 0.37 0.0 0 0 210.00 37.12
  L 210.00 39.63
  A 0.37 0.37 0.0 0 0 210.37 40.00
  L 214.63 40.00
  A 0.37 0.37 0.0 0 1 215.00 40.37
  L 215.00 42.12
  A 0.37 0.37 0.0 0 1 214.66 42.48
  L 210.34 42.80
  A 0.37 0.37 0.0 0 0 210.00 43.16
  L 210.00 46.13
  A 0.37 0.37 0.0 0 0 210.37 46.50
  Z"
/>
<path fill="#1e1d1e" d="
  M 218.50 34.64
  A 0.42 0.42 0.0 0 1 218.92 34.22
  L 223.94 34.22
  A 6.82 6.65 0.0 0 1 230.76 40.87
  L 230.76 42.33
  A 6.82 6.65 -0.0 0 1 223.94 48.98
  L 218.92 48.98
  A 0.42 0.42 0.0 0 1 218.50 48.56
  L 218.50 34.64
  Z
  M 221.82 37.33
  L 221.68 46.04
  A 0.39 0.39 0.0 0 0 222.07 46.44
  L 223.45 46.46
  A 4.03 3.97 -89.1 0 0 227.48 42.49
  L 227.50 41.06
  A 4.03 3.97 -89.1 0 0 223.59 36.96
  L 222.21 36.94
  A 0.39 0.39 0.0 0 0 221.82 37.33
  Z"
/>
<path fill="#1e1d1e" d="
  M 237.00 43.07
  L 237.00 46.06
  A 0.44 0.44 0.0 0 0 237.44 46.50
  L 242.06 46.50
  A 0.44 0.44 0.0 0 1 242.50 46.94
  L 242.50 48.56
  A 0.44 0.44 0.0 0 1 242.06 49.00
  L 234.44 49.00
  A 0.44 0.44 0.0 0 1 234.00 48.56
  L 234.00 34.69
  A 0.44 0.44 0.0 0 1 234.44 34.25
  L 242.06 34.25
  A 0.44 0.44 0.0 0 1 242.50 34.69
  L 242.50 36.31
  A 0.44 0.44 0.0 0 1 242.06 36.75
  L 237.44 36.75
  A 0.44 0.44 0.0 0 0 237.00 37.19
  L 237.00 39.56
  A 0.44 0.44 0.0 0 0 237.44 40.00
  L 241.71 40.00
  A 0.44 0.44 0.0 0 1 242.15 40.50
  L 241.91 42.34
  A 0.44 0.44 0.0 0 1 241.46 42.72
  L 237.45 42.63
  A 0.44 0.44 0.0 0 0 237.00 43.07
  Z"
/>
<path fill="#1e1d1e" d="
  M 248.75 44.16
  L 248.75 48.50
  Q 248.75 49.00 248.25 49.00
  L 246.28 49.00
  Q 245.75 49.00 245.75 48.47
  L 245.75 34.76
  Q 245.75 34.31 246.21 34.29
  C 249.30 34.16 254.40 33.57 255.68 37.05
  Q 256.40 39.02 255.06 41.12
  Q 254.83 41.49 254.46 41.72
  L 253.74 42.15
  Q 253.11 42.53 253.52 43.14
  L 257.05 48.45
  Q 257.41 49.00 256.75 49.00
  L 254.53 49.00
  Q 254.01 49.00 253.73 48.56
  L 250.58 43.62
  A 1.00 0.99 -61.3 0 0 248.75 44.16
  Z
  M 248.76 37.28
  L 248.74 40.22
  A 0.52 0.52 0.0 0 0 249.26 40.74
  L 250.33 40.75
  A 2.17 1.43 0.3 0 0 252.51 39.33
  L 252.51 38.21
  A 2.17 1.43 0.3 0 0 250.35 36.77
  L 249.28 36.76
  A 0.52 0.52 0.0 0 0 248.76 37.28
  Z"
/>
<path fill="#1e1d1e" d="
  M 277.32 46.50
  L 282.68 46.50
  A 0.32 0.32 0.0 0 1 283.00 46.82
  L 283.00 48.68
  A 0.32 0.32 0.0 0 1 282.68 49.00
  L 274.32 49.00
  A 0.32 0.32 0.0 0 1 274.00 48.68
  L 274.00 34.57
  A 0.32 0.32 0.0 0 1 274.32 34.25
  L 276.68 34.25
  A 0.32 0.32 0.0 0 1 277.00 34.57
  L 277.00 46.18
  A 0.32 0.32 0.0 0 0 277.32 46.50
  Z"
/>
<ellipse fill="#ffffff" cx="0.00" cy="0.00" transform="translate(179.77,41.60) rotate(90.1)" rx="5.09" ry="3.81"/>
<path fill="#ffffff" d="
  M 248.76 37.28
  A 0.52 0.52 0.0 0 1 249.28 36.76
  L 250.35 36.77
  A 2.17 1.43 0.3 0 1 252.51 38.21
  L 252.51 39.33
  A 2.17 1.43 0.3 0 1 250.33 40.75
  L 249.26 40.74
  A 0.52 0.52 0.0 0 1 248.74 40.22
  L 248.76 37.28
  Z"
/>
<path fill="#ffffff" d="
  M 221.82 37.33
  A 0.39 0.39 0.0 0 1 222.21 36.94
  L 223.59 36.96
  A 4.03 3.97 -89.1 0 1 227.50 41.06
  L 227.48 42.49
  A 4.03 3.97 -89.1 0 1 223.45 46.46
  L 222.07 46.44
  A 0.39 0.39 0.0 0 1 221.68 46.04
  L 221.82 37.33
  Z"
/>
<path fill="#ffffff" d="
  M 263.19 42.39
  L 264.55 37.57
  A 0.33 0.33 0.0 0 1 265.18 37.57
  L 266.59 42.37
  A 0.33 0.33 0.0 0 1 266.28 42.79
  L 263.50 42.81
  A 0.33 0.33 0.0 0 1 263.19 42.39
  Z"
/>
<rect fill="#349a46" x="-7.42" y="-7.49" transform="translate(25.08,59.99) rotate(0.2)" width="14.84" height="14.98" rx="1.13"/>
<rect fill="#349a46" x="-7.50" y="-7.50" transform="translate(43.01,59.99) rotate(-0.1)" width="15.00" height="15.00" rx="1.36"/>
<rect fill="#349a46" x="-7.49" y="-7.50" transform="translate(60.98,59.99) rotate(0.1)" width="14.98" height="15.00" rx="1.32"/>
<path fill="#1e1d1e" d="
  M 86.01 57.34
  C 78.27 54.76 76.92 68.31 86.23 66.19
  A 0.52 0.52 0.0 0 1 86.52 67.19
  C 75.40 71.34 75.87 51.92 86.84 56.35
  A 0.35 0.35 0.0 0 1 86.95 56.92
  L 86.69 57.18
  Q 86.40 57.48 86.01 57.34
  Z"
/>
<circle fill="#1e1d1e" cx="120.20" cy="56.50" r="0.77"/>
<path fill="#1e1d1e" d="
  M 99.98 58.75
  L 101.52 58.75
  A 0.48 0.48 0.0 0 1 101.59 59.71
  L 100.08 59.96
  Q 99.47 60.05 99.48 60.67
  L 99.54 65.62
  A 0.83 0.82 2.7 0 0 100.29 66.44
  L 101.56 66.57
  A 0.62 0.62 0.0 0 1 101.47 67.80
  C 96.32 67.61 99.05 63.06 97.67 59.80
  Q 97.51 59.40 97.71 59.01
  L 98.80 56.94
  Q 99.09 56.38 99.35 56.96
  Q 99.61 57.54 99.50 58.19
  A 0.49 0.48 4.5 0 0 99.98 58.75
  Z"
/>
<path fill="#1e1d1e" d="
  M 93.16 62.24
  A 1.13 1.12 -37.6 0 0 93.45 60.03
  Q 91.89 59.61 90.27 60.29
  A 0.49 0.48 11.4 0 1 89.74 59.50
  C 91.26 58.04 94.88 58.33 95.39 60.93
  Q 95.78 62.94 95.38 67.18
  Q 95.33 67.78 94.79 67.52
  L 94.01 67.14
  Q 93.56 66.93 93.14 67.18
  C 88.42 69.97 85.57 62.27 93.16 62.24
  Z
  M 90.55 66.30
  Q 92.76 67.11 93.87 65.04
  A 1.19 1.18 8.5 0 0 92.59 63.32
  Q 91.94 63.45 90.97 63.81
  Q 89.37 64.41 90.20 65.99
  A 0.69 0.68 85.9 0 0 90.55 66.30
  Z"
/>
<path fill="#1e1d1e" d="
  M 108.41 60.32
  Q 106.84 59.33 105.02 60.26
  A 0.40 0.40 0.0 0 1 104.51 60.14
  L 104.26 59.81
  A 0.23 0.22 -33.7 0 1 104.33 59.48
  C 111.23 55.50 110.32 63.93 110.23 67.28
  Q 110.21 68.03 109.61 67.58
  L 108.75 66.94
  Q 108.36 66.65 108.00 66.98
  C 103.41 71.18 100.60 60.84 107.44 62.58
  A 1.25 1.24 68.2 0 0 108.41 60.32
  Z
  M 107.77 63.19
  L 105.01 63.93
  A 0.65 0.65 0.0 0 0 104.55 64.73
  L 104.65 65.09
  A 1.97 1.96 -15.1 0 0 107.06 66.47
  L 107.27 66.41
  A 1.97 1.96 -15.1 0 0 108.67 64.00
  L 108.57 63.65
  A 0.65 0.65 0.0 0 0 107.77 63.19
  Z"
/>
<path fill="#1e1d1e" d="
  M 115.05 59.47
  Q 116.15 58.46 117.65 58.81
  A 0.41 0.40 -48.2 0 1 117.69 59.59
  L 115.06 60.50
  A 1.06 1.06 0.0 0 0 114.35 61.47
  L 114.20 67.06
  A 0.45 0.45 0.0 0 1 113.74 67.50
  Q 113.56 67.50 113.37 67.50
  Q 112.81 67.52 112.81 66.95
  L 112.90 59.23
  Q 112.91 58.28 113.58 58.95
  L 114.08 59.45
  Q 114.55 59.93 115.05 59.47
  Z"
/>
<path fill="#1e1d1e" d="
  M 125.87 59.37
  C 127.29 58.27 130.35 58.40 130.70 60.71
  Q 131.16 63.84 130.94 67.01
  A 0.61 0.61 0.0 0 1 129.73 67.00
  L 129.42 60.95
  A 1.03 1.01 -85.2 0 0 128.63 60.00
  C 123.77 58.85 125.22 64.74 124.75 67.32
  A 0.50 0.50 0.0 0 1 123.75 67.23
  L 123.75 59.23
  Q 123.75 58.49 124.36 58.91
  L 125.06 59.39
  Q 125.47 59.67 125.87 59.37
  Z"
/>
<path fill="#1e1d1e" d="
  M 134.53 64.34
  Q 136.08 67.57 139.51 66.15
  A 0.48 0.48 0.0 0 1 139.94 67.01
  C 133.88 70.51 130.61 61.22 135.47 59.12
  Q 138.29 57.90 140.52 61.28
  A 1.43 1.43 0.0 0 1 139.33 63.50
  L 135.06 63.50
  Q 134.13 63.50 134.53 64.34
  Z
  M 135.24 62.51
  L 138.61 62.27
  A 0.45 0.45 0.0 0 0 139.03 61.78
  L 139.02 61.69
  A 2.05 2.01 85.9 0 0 136.87 59.78
  L 136.61 59.80
  A 2.05 2.01 85.9 0 0 134.75 61.99
  L 134.76 62.09
  A 0.45 0.45 0.0 0 0 135.24 62.51
  Z"
/>
<path fill="#1e1d1e" d="
  M 144.90 59.27
  C 151.65 57.55 150.04 62.78 149.98 67.00
  Q 149.97 67.50 149.48 67.50
  L 149.04 67.50
  Q 148.74 67.50 148.75 67.20
  C 148.77 65.00 149.86 59.26 146.10 59.79
  A 2.15 2.15 0.0 0 0 144.27 61.83
  L 144.07 66.99
  Q 144.05 67.45 143.59 67.52
  Q 143.17 67.58 142.93 67.30
  Q 142.75 67.09 142.75 66.65
  Q 142.73 63.02 142.77 59.40
  Q 142.78 58.81 143.34 58.99
  L 144.14 59.24
  Q 144.51 59.36 144.90 59.27
  Z"
/>
<path fill="#1e1d1e" d="
  M 156.80 64.71
  Q 155.39 63.61 153.69 63.09
  A 1.42 1.39 -12.7 0 1 153.06 62.70
  C 150.00 59.38 155.52 57.73 157.88 59.36
  A 0.41 0.41 0.0 0 1 157.60 60.10
  L 154.64 59.79
  A 1.10 1.10 0.0 0 0 154.09 61.89
  C 156.06 62.75 158.75 62.98 158.22 65.94
  Q 158.14 66.43 157.75 66.76
  Q 155.69 68.50 152.96 67.41
  Q 152.42 67.20 152.29 66.85
  Q 152.19 66.61 152.25 66.35
  A 0.45 0.45 0.0 0 1 152.91 66.04
  Q 154.97 67.19 156.79 65.84
  A 0.71 0.71 0.0 0 0 156.80 64.71
  Z"
/>
<path fill="#1e1d1e" d="
  M 161.58 64.20
  C 161.85 66.64 164.26 66.66 166.43 66.14
  Q 167.05 65.99 167.00 66.63
  Q 166.94 67.23 166.45 67.40
  Q 161.78 69.00 160.25 65.02
  C 158.09 59.44 166.42 55.27 167.52 62.63
  A 0.76 0.76 0.0 0 1 166.77 63.50
  L 162.21 63.50
  Q 161.50 63.50 161.58 64.20
  Z
  M 161.87 62.31
  L 165.77 62.23
  A 0.25 0.25 0.0 0 0 166.01 61.97
  L 166.01 61.83
  A 2.09 2.07 88.8 0 0 163.89 59.79
  L 163.63 59.79
  A 2.09 2.07 88.8 0 0 161.61 61.93
  L 161.61 62.07
  A 0.25 0.25 0.0 0 0 161.87 62.31
  Z"
/>
<rect fill="#1e1d1e" x="-0.69" y="-4.32" transform="translate(120.18,63.34) rotate(1.3)" width="1.38" height="8.64" rx="0.66"/>
<path fill="#ffffff" d="
  M 135.24 62.51
  A 0.45 0.45 0.0 0 1 134.76 62.09
  L 134.75 61.99
  A 2.05 2.01 85.9 0 1 136.61 59.80
  L 136.87 59.78
  A 2.05 2.01 85.9 0 1 139.02 61.69
  L 139.03 61.78
  A 0.45 0.45 0.0 0 1 138.61 62.27
  L 135.24 62.51
  Z"
/>
<path fill="#ffffff" d="
  M 161.87 62.31
  A 0.25 0.25 0.0 0 1 161.61 62.07
  L 161.61 61.93
  A 2.09 2.07 88.8 0 1 163.63 59.79
  L 163.89 59.79
  A 2.09 2.07 88.8 0 1 166.01 61.83
  L 166.01 61.97
  A 0.25 0.25 0.0 0 1 165.77 62.23
  L 161.87 62.31
  Z"
/>
<path fill="#ffffff" d="
  M 90.55 66.30
  A 0.69 0.68 85.9 0 1 90.20 65.99
  Q 89.37 64.41 90.97 63.81
  Q 91.94 63.45 92.59 63.32
  A 1.19 1.18 8.5 0 1 93.87 65.04
  Q 92.76 67.11 90.55 66.30
  Z"
/>
<path fill="#ffffff" d="
  M 107.77 63.19
  A 0.65 0.65 0.0 0 1 108.57 63.65
  L 108.67 64.00
  A 1.97 1.96 -15.1 0 1 107.27 66.41
  L 107.06 66.47
  A 1.97 1.96 -15.1 0 1 104.65 65.09
  L 104.55 64.73
  A 0.65 0.65 0.0 0 1 105.01 63.93
  L 107.77 63.19
  Z"
/>
<rect fill="#349a46" x="-7.47" y="-7.50" transform="translate(25.03,77.99) rotate(-0.1)" width="14.94" height="15.00" rx="1.09"/>
<rect fill="#349a46" x="-7.50" y="-7.50" transform="translate(43.00,77.99) rotate(0.1)" width="15.00" height="15.00" rx="1.42"/>
<ellipse fill="#1e1d1e" cx="0.00" cy="0.00" transform="translate(183.31,74.66) rotate(131.5)" rx="1.77" ry="0.63"/>
<path fill="#1e1d1e" d="
  M 201.25 77.25
  L 201.25 74.00
  A 0.54 0.54 0.0 0 1 201.98 73.49
  Q 202.11 73.54 202.22 73.58
  Q 202.50 73.68 202.50 73.98
  L 202.50 85.01
  A 0.47 0.47 0.0 0 1 201.81 85.42
  L 201.44 85.22
  Q 200.90 84.93 200.35 85.21
  C 193.15 88.91 193.46 73.20 200.67 77.58
  Q 201.25 77.93 201.25 77.25
  Z
  M 198.8947 84.6498
  A 3.31 2.44 89.4 0 0 201.2999 81.3144
  A 3.31 2.44 89.4 0 0 198.8253 78.0302
  A 3.31 2.44 89.4 0 0 196.4201 81.3656
  A 3.31 2.44 89.4 0 0 198.8947 84.6498
  Z"
/>
<path fill="#1e1d1e" d="
  M 85.75 75.68
  C 78.03 72.68 77.35 86.91 85.85 84.17
  A 0.50 0.50 0.0 0 1 86.23 85.10
  C 76.22 90.11 75.25 70.12 86.41 74.62
  Q 87.02 74.86 86.56 75.32
  L 86.31 75.57
  Q 86.07 75.81 85.75 75.68
  Z"
/>
<path fill="#1e1d1e" d="
  M 150.19 75.77
  C 143.35 72.35 140.79 86.14 150.15 84.26
  Q 150.67 84.16 150.78 84.68
  Q 150.82 84.90 150.72 85.10
  Q 150.63 85.28 150.36 85.36
  C 145.21 86.93 142.05 83.65 142.73 78.71
  C 143.14 75.68 147.56 72.02 150.89 74.68
  A 0.65 0.65 0.0 0 1 150.19 75.77
  Z"
/>
<path fill="#1e1d1e" d="
  M 205.39 74.26
  A 0.43 0.42 20.1 0 1 206.05 73.96
  Q 206.89 74.52 206.28 75.39
  A 0.54 0.53 -24.9 0 1 205.31 75.04
  L 205.39 74.26
  Z"
/>
<path fill="#1e1d1e" d="
  M 162.79 77.19
  Q 164.23 77.86 165.56 77.08
  A 2.60 2.60 0.0 0 1 169.43 78.82
  Q 170.11 82.19 169.41 85.48
  A 0.35 0.34 -68.5 0 1 168.89 85.71
  L 168.59 85.54
  Q 168.34 85.39 168.33 85.10
  L 168.07 79.26
  Q 168.05 78.71 167.55 78.49
  C 163.03 76.49 163.87 83.19 163.68 85.39
  Q 163.62 85.99 163.11 85.68
  L 162.87 85.54
  Q 162.53 85.33 162.52 84.93
  L 162.45 77.42
  A 0.25 0.24 -77.9 0 1 162.79 77.19
  Z"
/>
<path fill="#1e1d1e" d="
  M 175.17 84.53
  L 177.38 84.23
  A 0.42 0.42 0.0 0 1 177.67 85.00
  C 170.72 89.63 168.80 74.77 176.92 77.05
  Q 177.51 77.22 177.50 77.83
  Q 177.50 77.96 177.50 78.10
  Q 177.50 78.42 177.20 78.33
  C 172.73 77.01 172.07 82.10 174.35 84.27
  A 0.99 0.98 62.1 0 0 175.17 84.53
  Z"
/>
<path fill="#1e1d1e" d="
  M 191.56 78.75
  Q 190.55 79.68 190.52 81.07
  L 190.46 85.05
  A 0.73 0.72 -44.6 0 1 189.01 85.04
  L 189.00 77.48
  Q 189.00 76.74 189.61 77.16
  L 190.46 77.74
  A 0.56 0.55 -48.6 0 0 191.15 77.69
  Q 192.34 76.60 193.64 76.88
  A 0.63 0.62 -35.5 0 1 193.43 78.11
  Q 192.39 77.99 191.56 78.75
  Z"
/>
<path fill="#1e1d1e" d="
  M 93.48 80.07
  Q 93.67 78.75 92.66 78.21
  C 91.82 77.75 90.65 78.16 89.76 78.44
  Q 89.24 78.61 89.25 78.05
  Q 89.25 77.89 89.25 77.73
  Q 89.25 77.53 89.43 77.44
  Q 91.97 76.23 94.20 77.74
  A 1.15 1.13 -73.8 0 1 94.70 78.67
  L 94.84 85.05
  Q 94.86 85.88 94.15 85.45
  L 93.72 85.20
  Q 93.26 84.92 92.76 85.14
  Q 91.11 85.87 89.23 85.30
  A 2.02 2.02 0.0 0 1 88.46 81.87
  Q 90.27 80.24 92.89 80.53
  Q 93.41 80.59 93.48 80.07
  Z
  M 89.54 82.49
  A 1.23 1.23 0.0 0 0 90.40 84.55
  Q 92.27 84.64 93.33 83.50
  A 1.28 1.27 21.1 0 0 92.38 81.36
  Q 90.55 81.37 89.54 82.49
  Z"
/>
<path fill="#1e1d1e" d="
  M 98.82 79.64
  L 98.71 84.96
  A 0.53 0.53 0.0 0 1 98.16 85.48
  Q 97.19 85.44 97.49 84.00
  Q 97.77 82.63 97.37 77.84
  Q 97.32 77.19 97.96 77.31
  L 99.07 77.53
  Q 99.56 77.62 100.00 77.38
  Q 102.00 76.29 103.54 77.89
  Q 103.88 78.25 104.25 77.93
  C 105.90 76.51 108.98 76.46 109.33 79.17
  Q 109.74 82.24 109.34 85.27
  Q 109.26 85.83 108.75 85.61
  Q 108.54 85.52 108.41 85.36
  C 107.18 83.90 110.10 77.95 106.08 77.97
  A 1.97 1.97 0.0 0 0 104.12 79.91
  L 104.03 85.39
  A 0.31 0.31 0.0 0 1 103.50 85.61
  Q 103.35 85.47 103.15 85.51
  A 0.33 0.32 84.2 0 1 102.76 85.19
  L 102.75 79.20
  Q 102.74 78.57 102.15 78.34
  Q 100.78 77.82 99.35 78.71
  Q 98.83 79.04 98.82 79.64
  Z"
/>
<path fill="#1e1d1e" d="
  M 113.25 85.47
  L 113.25 88.75
  Q 113.25 89.24 112.76 89.25
  Q 112.62 89.25 112.49 89.25
  Q 112.00 89.24 112.00 88.75
  L 112.00 77.67
  Q 112.00 77.05 112.59 77.24
  L 113.33 77.48
  Q 113.75 77.61 114.13 77.40
  C 121.04 73.55 121.37 89.21 113.94 85.06
  Q 113.25 84.68 113.25 85.47
  Z
  M 115.6800 84.6100
  A 3.31 2.46 90.0 0 0 118.1400 81.3000
  A 3.31 2.46 90.0 0 0 115.6800 77.9900
  A 3.31 2.46 90.0 0 0 113.2200 81.3000
  A 3.31 2.46 90.0 0 0 115.6800 84.6100
  Z"
/>
<path fill="#1e1d1e" d="
  M 127.14 82.98
  L 127.62 77.40
  Q 127.66 76.94 128.11 77.00
  L 128.39 77.04
  Q 128.75 77.09 128.75 77.45
  L 128.76 84.97
  Q 128.76 85.55 128.19 85.42
  Q 126.52 85.04 124.98 85.70
  A 2.32 2.32 0.0 0 1 121.75 83.56
  L 121.75 77.92
  Q 121.75 77.45 122.18 77.28
  Q 122.64 77.11 122.89 77.43
  Q 123.05 77.64 123.03 78.06
  Q 122.87 80.77 123.10 83.43
  Q 123.15 83.98 123.65 84.23
  Q 125.13 84.97 126.62 83.90
  Q 127.09 83.56 127.14 82.98
  Z"
/>
<path fill="#1e1d1e" d="
  M 132.67 79.85
  Q 133.83 80.39 135.20 81.07
  C 139.84 83.38 134.40 87.50 130.96 85.09
  A 0.58 0.58 0.0 0 1 131.57 84.10
  Q 133.44 85.09 135.15 84.02
  A 0.83 0.82 -47.5 0 0 135.09 82.59
  L 131.66 80.81
  A 1.82 1.82 0.0 0 1 131.66 77.58
  Q 133.85 76.47 136.20 77.21
  A 0.53 0.53 0.0 0 1 136.03 78.25
  L 133.06 78.19
  A 0.87 0.87 0.0 0 0 132.67 79.85
  Z"
/>
<path fill="#1e1d1e" d="
  M 156.4602 85.7694
  A 4.47 3.97 89.1 0 1 152.4205 81.3624
  A 4.47 3.97 89.1 0 1 156.3198 76.8306
  A 4.47 3.97 89.1 0 1 160.3595 81.2376
  A 4.47 3.97 89.1 0 1 156.4602 85.7694
  Z
  M 156.3686 84.6000
  A 3.27 2.52 90.2 0 0 158.9000 81.3388
  A 3.27 2.52 90.2 0 0 156.3914 78.0600
  A 3.27 2.52 90.2 0 0 153.8600 81.3212
  A 3.27 2.52 90.2 0 0 156.3686 84.6000
  Z"
/>
<path fill="#1e1d1e" d="
  M 183.1920 85.8050
  A 4.50 4.05 87.3 0 1 178.9345 81.5008
  A 4.50 4.05 87.3 0 1 182.7680 76.8150
  A 4.50 4.05 87.3 0 1 187.0255 81.1192
  A 4.50 4.05 87.3 0 1 183.1920 85.8050
  Z
  M 183.0080 84.5294
  A 3.23 2.44 91.1 0 0 185.5096 81.3468
  A 3.23 2.44 91.1 0 0 183.1320 78.0706
  A 3.23 2.44 91.1 0 0 180.6304 81.2532
  A 3.23 2.44 91.1 0 0 183.0080 84.5294
  Z"
/>
<path fill="#1e1d1e" d="
  M 214.15 77.23
  A 1.64 1.64 0.0 0 1 215.31 78.73
  L 215.57 84.91
  A 0.61 0.61 0.0 0 1 214.64 85.46
  L 214.24 85.23
  Q 213.77 84.95 213.28 85.21
  Q 210.79 86.58 208.95 84.58
  Q 208.60 84.20 208.65 83.69
  Q 209.02 79.91 213.10 80.57
  A 0.94 0.94 0.0 0 0 214.00 79.07
  Q 212.62 77.27 210.54 78.52
  A 0.52 0.52 0.0 0 1 209.81 78.32
  Q 209.61 77.94 209.77 77.64
  Q 209.87 77.45 210.19 77.33
  Q 212.15 76.62 214.15 77.23
  Z
  M 210.36 82.22
  A 1.25 1.25 0.0 0 0 210.93 84.50
  Q 213.66 84.80 214.06 82.18
  A 0.56 0.56 0.0 0 0 213.61 81.55
  Q 211.82 81.22 210.36 82.22
  Z"
/>
<rect fill="#1e1d1e" x="-0.64" y="-4.18" transform="translate(205.89,81.44) rotate(0.4)" width="1.28" height="8.36" rx="0.37"/>
<ellipse fill="#ffffff" cx="0.00" cy="0.00" transform="translate(115.68,81.30) rotate(90.0)" rx="3.31" ry="2.46"/>
<ellipse fill="#ffffff" cx="0.00" cy="0.00" transform="translate(198.86,81.34) rotate(89.4)" rx="3.31" ry="2.44"/>
<ellipse fill="#ffffff" cx="0.00" cy="0.00" transform="translate(156.38,81.33) rotate(90.2)" rx="3.27" ry="2.52"/>
<ellipse fill="#ffffff" cx="0.00" cy="0.00" transform="translate(183.07,81.30) rotate(91.1)" rx="3.23" ry="2.44"/>
<path fill="#ffffff" d="
  M 89.54 82.49
  Q 90.55 81.37 92.38 81.36
  A 1.28 1.27 21.1 0 1 93.33 83.50
  Q 92.27 84.64 90.40 84.55
  A 1.23 1.23 0.0 0 1 89.54 82.49
  Z"
/>
<path fill="#ffffff" d="
  M 210.36 82.22
  Q 211.82 81.22 213.61 81.55
  A 0.56 0.56 0.0 0 1 214.06 82.18
  Q 213.66 84.80 210.93 84.50
  A 1.25 1.25 0.0 0 1 210.36 82.22
  Z"
/>
</svg>
