<?xml version="1.0" encoding="UTF-8" standalone="no"?>
<!DOCTYPE svg PUBLIC "-//W3C//DTD SVG 1.1//EN" "http://www.w3.org/Graphics/SVG/1.1/DTD/svg11.dtd">
<svg xmlns="http://www.w3.org/2000/svg" version="1.1" viewBox="0.00 0.00 222.00 223.00">
<g stroke-width="2.00" fill="none" stroke-linecap="butt">
<path stroke="#e59093" vector-effect="non-scaling-stroke" d="
  M 97.69 33.74
  A 12.02 12.02 0.0 0 0 85.67 21.72
  A 12.02 12.02 0.0 0 0 73.65 33.74
  A 12.02 12.02 0.0 0 0 85.67 45.76
  A 12.02 12.02 0.0 0 0 97.69 33.74"
/>
<path stroke="#9acda3" vector-effect="non-scaling-stroke" d="
  M 122.7655 24.8592
  A 2.09 2.09 0.0 0 0 120.6792 22.7656
  L 102.8592 22.7345
  A 2.09 2.09 0.0 0 0 100.7656 24.8208
  L 100.7345 42.6408
  A 2.09 2.09 0.0 0 0 102.8208 44.7344
  L 120.6408 44.7655
  A 2.09 2.09 0.0 0 0 122.7344 42.6792
  L 122.7655 24.8592"
/>
<path stroke="#9acda3" vector-effect="non-scaling-stroke" d="
  M 148.9844 24.8108
  A 2.08 2.08 0.0 0 0 146.9008 22.7345
  L 129.0808 22.7656
  A 2.08 2.08 0.0 0 0 127.0044 24.8492
  L 127.0356 42.6892
  A 2.08 2.08 0.0 0 0 129.1192 44.7655
  L 146.9392 44.7344
  A 2.08 2.08 0.0 0 0 149.0156 42.6508
  L 148.9844 24.8108"
/>
<path stroke="#9acda3" vector-effect="non-scaling-stroke" d="
  M 96.5153 51.3592
  A 2.34 2.34 0.0 0 0 94.1794 49.0151
  L 76.8594 48.9849
  A 2.34 2.34 0.0 0 0 74.5153 51.3208
  L 74.4847 68.8608
  A 2.34 2.34 0.0 0 0 76.8206 71.2049
  L 94.1406 71.2351
  A 2.34 2.34 0.0 0 0 96.4847 68.8992
  L 96.5153 51.3592"
/>
<path stroke="#9acda3" vector-effect="non-scaling-stroke" d="
  M 122.7247 51.2808
  A 2.29 2.29 0.0 0 0 120.4307 48.9948
  L 103.0307 49.0252
  A 2.29 2.29 0.0 0 0 100.7447 51.3192
  L 100.7753 68.8392
  A 2.29 2.29 0.0 0 0 103.0693 71.1252
  L 120.4693 71.0948
  A 2.29 2.29 0.0 0 0 122.7553 68.8008
  L 122.7247 51.2808"
/>
<path stroke="#9acda3" vector-effect="non-scaling-stroke" d="
  M 96.4745 77.4708
  A 2.24 2.24 0.0 0 0 94.2306 75.2347
  L 76.7106 75.2653
  A 2.24 2.24 0.0 0 0 74.4745 77.5092
  L 74.5055 95.2692
  A 2.24 2.24 0.0 0 0 76.7494 97.5053
  L 94.2694 97.4747
  A 2.24 2.24 0.0 0 0 96.5055 95.2308
  L 96.4745 77.4708"
/>
<path stroke="#9acda3" vector-effect="non-scaling-stroke" d="
  M 122.7553 77.6192
  A 2.34 2.34 0.0 0 0 120.4194 75.2751
  L 103.1194 75.2449
  A 2.34 2.34 0.0 0 0 100.7753 77.5808
  L 100.7447 95.1408
  A 2.34 2.34 0.0 0 0 103.0806 97.4849
  L 120.3806 97.5151
  A 2.34 2.34 0.0 0 0 122.7247 95.1792
  L 122.7553 77.6192"
/>
<path stroke="#9acda3" vector-effect="non-scaling-stroke" d="
  M 148.9849 77.7008
  A 2.47 2.47 0.0 0 0 146.5106 75.2351
  L 129.4706 75.2649
  A 2.47 2.47 0.0 0 0 127.0049 77.7392
  L 127.0351 95.0392
  A 2.47 2.47 0.0 0 0 129.5094 97.5049
  L 146.5494 97.4751
  A 2.47 2.47 0.0 0 0 149.0151 95.0008
  L 148.9849 77.7008"
/>
<path stroke="#9acda3" vector-effect="non-scaling-stroke" d="
  M 122.7610 103.8184
  A 2.15 2.15 0.0 0 0 120.6185 101.6609
  L 102.9586 101.5992
  A 2.15 2.15 0.0 0 0 100.8011 103.7417
  L 100.7390 121.5216
  A 2.15 2.15 0.0 0 0 102.8815 123.6791
  L 120.5414 123.7408
  A 2.15 2.15 0.0 0 0 122.6989 121.5983
  L 122.7610 103.8184"
/>
<path stroke="#9acda3" vector-effect="non-scaling-stroke" d="
  M 96.4957 103.6192
  A 1.85 1.85 0.0 0 0 94.6490 101.7660
  L 76.3690 101.7341
  A 1.85 1.85 0.0 0 0 74.5158 103.5808
  L 74.4843 121.6408
  A 1.85 1.85 0.0 0 0 76.3310 123.4940
  L 94.6110 123.5259
  A 1.85 1.85 0.0 0 0 96.4642 121.6792
  L 96.4957 103.6192"
/>
<path stroke="#8e8e8f" vector-effect="non-scaling-stroke" d="
  M 190.4337 147.9542
  A 9.38 9.38 0.0 0 0 181.0210 138.6070
  L 179.2410 138.6132
  A 9.38 9.38 0.0 0 0 169.8938 148.0259
  L 169.9063 151.5858
  A 9.38 9.38 0.0 0 0 179.3190 160.9330
  L 181.0990 160.9268
  A 9.38 9.38 0.0 0 0 190.4462 151.5141
  L 190.4337 147.9542"
/>
<path stroke="#8e8e8f" vector-effect="non-scaling-stroke" d="
  M 37.03 139.22
  A 0.26 0.26 0.0 0 0 36.77 138.96
  L 33.01 138.96
  A 0.26 0.26 0.0 0 0 32.75 139.22
  L 32.75 160.48
  A 0.26 0.26 0.0 0 0 33.01 160.74
  L 36.77 160.74
  A 0.26 0.26 0.0 0 0 37.03 160.48
  L 37.03 139.22"
/>
<path stroke="#8e8e8f" vector-effect="non-scaling-stroke" d="
  M 71.21 145.47
  L 71.43 143.40
  A 0.88 0.87 88.3 0 1 72.15 142.63
  Q 75.44 142.08 78.44 143.49
  A 0.49 0.49 0.0 0 0 79.10 143.23
  L 80.13 140.61
  Q 80.28 140.24 79.93 140.06
  C 75.91 137.99 68.27 137.56 66.84 143.23
  C 65.43 148.87 70.69 150.53 74.52 152.77
  C 76.13 153.71 76.51 155.17 75.23 156.60
  A 1.51 1.51 0.0 0 1 74.23 157.10
  Q 70.44 157.41 67.02 155.67
  Q 66.50 155.41 66.50 155.99
  L 66.50 159.19
  Q 66.50 159.69 66.96 159.87
  Q 71.96 161.90 76.24 160.48
  C 79.96 159.24 81.78 154.96 79.63 151.49
  C 78.19 149.16 74.03 147.51 71.64 146.27
  A 0.80 0.80 0.0 0 1 71.21 145.47"
/>
<path stroke="#8e8e8f" vector-effect="non-scaling-stroke" d="
  M 141.67 156.23
  C 139.42 158.21 134.83 157.39 134.55 153.73
  Q 134.02 146.70 134.31 139.58
  Q 134.34 138.98 133.74 138.98
  L 130.45 139.01
  A 0.61 0.60 -88.5 0 0 129.85 139.59
  Q 129.45 147.09 130.04 154.57
  C 130.63 162.09 142.02 162.67 146.04 158.05
  C 148.56 155.13 147.50 143.69 147.50 139.56
  Q 147.50 139.00 146.95 139.00
  L 143.69 139.00
  Q 142.99 139.00 143.04 139.70
  C 143.26 142.88 144.03 154.16 141.67 156.23"
/>
<path stroke="#8e8e8f" vector-effect="non-scaling-stroke" d="
  M 46.78 144.98
  A 0.20 0.20 0.0 0 1 47.15 144.87
  L 56.02 160.30
  Q 56.28 160.75 56.81 160.75
  L 61.50 160.75
  Q 62.00 160.75 62.00 160.25
  L 62.00 139.50
  Q 62.00 139.00 61.50 139.00
  L 58.60 139.00
  Q 57.94 139.00 57.95 139.66
  L 58.13 154.54
  A 0.22 0.21 -60.1 0 1 57.73 154.65
  L 48.91 139.44
  Q 48.65 139.00 48.15 139.00
  L 43.50 139.00
  Q 43.00 139.00 43.00 139.50
  L 43.00 160.25
  Q 43.00 160.75 43.50 160.75
  L 46.42 160.75
  Q 47.09 160.75 47.08 160.08
  L 46.78 144.98"
/>
<path stroke="#8e8e8f" vector-effect="non-scaling-stroke" d="
  M 92.75 143.20
  A 0.46 0.46 0.0 0 1 93.22 142.74
  L 98.28 142.79
  A 0.46 0.46 0.0 0 0 98.75 142.33
  L 98.75 139.46
  A 0.46 0.46 0.0 0 0 98.29 139.00
  L 82.71 139.00
  A 0.46 0.46 0.0 0 0 82.25 139.46
  L 82.25 142.29
  A 0.46 0.46 0.0 0 0 82.71 142.75
  L 87.70 142.75
  A 0.46 0.46 0.0 0 1 88.16 143.21
  L 88.30 160.29
  A 0.46 0.46 0.0 0 0 88.76 160.75
  L 92.29 160.75
  A 0.46 0.46 0.0 0 0 92.75 160.29
  L 92.75 143.20"
/>
<path stroke="#8e8e8f" vector-effect="non-scaling-stroke" d="
  M 106.4630 139.2625
  A 0.27 0.27 0.0 0 0 106.1920 138.9935
  L 102.4121 139.0067
  A 0.27 0.27 0.0 0 0 102.1430 139.2776
  L 102.2170 160.4775
  A 0.27 0.27 0.0 0 0 102.4880 160.7465
  L 106.2679 160.7333
  A 0.27 0.27 0.0 0 0 106.5370 160.4624
  L 106.4630 139.2625"
/>
<path stroke="#8e8e8f" vector-effect="non-scaling-stroke" d="
  M 120.50 143.08
  A 0.33 0.33 0.0 0 1 120.83 142.75
  L 126.17 142.75
  A 0.33 0.33 0.0 0 0 126.50 142.42
  L 126.50 139.33
  A 0.33 0.33 0.0 0 0 126.17 139.00
  L 110.33 139.00
  A 0.33 0.33 0.0 0 0 110.00 139.33
  L 110.00 142.42
  A 0.33 0.33 0.0 0 0 110.33 142.75
  L 115.58 142.75
  A 0.33 0.33 0.0 0 1 115.91 143.08
  L 116.05 160.42
  A 0.33 0.33 0.0 0 0 116.38 160.75
  L 120.17 160.75
  A 0.33 0.33 0.0 0 0 120.50 160.42
  L 120.50 143.08"
/>
<path stroke="#8e8e8f" vector-effect="non-scaling-stroke" d="
  M 161.50 143.13
  A 0.38 0.38 0.0 0 1 161.88 142.75
  L 167.12 142.75
  A 0.38 0.38 0.0 0 0 167.50 142.37
  L 167.50 139.38
  A 0.38 0.38 0.0 0 0 167.12 139.00
  L 151.38 139.00
  A 0.38 0.38 0.0 0 0 151.00 139.38
  L 151.00 142.37
  A 0.38 0.38 0.0 0 0 151.38 142.75
  L 156.52 142.75
  A 0.38 0.38 0.0 0 1 156.90 143.13
  L 157.05 160.37
  A 0.38 0.38 0.0 0 0 157.43 160.75
  L 161.12 160.75
  A 0.38 0.38 0.0 0 0 161.50 160.37
  L 161.50 143.13"
/>
<path stroke="#8e8e8f" vector-effect="non-scaling-stroke" d="
  M 108.75 177.88
  A 0.38 0.38 0.0 0 1 109.13 177.50
  L 115.87 177.50
  A 0.38 0.38 0.0 0 0 116.25 177.12
  L 116.25 174.13
  A 0.38 0.38 0.0 0 0 115.87 173.75
  L 109.13 173.75
  A 0.38 0.38 0.0 0 1 108.75 173.37
  L 108.75 169.38
  A 0.38 0.38 0.0 0 1 109.13 169.00
  L 116.37 169.00
  A 0.38 0.38 0.0 0 0 116.75 168.62
  L 116.75 165.62
  A 0.38 0.38 0.0 0 0 116.37 165.24
  L 104.63 165.25
  A 0.38 0.38 0.0 0 0 104.25 165.63
  L 104.25 186.55
  A 0.38 0.38 0.0 0 0 104.63 186.93
  L 116.37 187.03
  A 0.38 0.38 0.0 0 0 116.75 186.65
  L 116.75 183.63
  A 0.38 0.38 0.0 0 0 116.37 183.25
  L 109.13 183.25
  A 0.38 0.38 0.0 0 1 108.75 182.87
  L 108.75 177.88"
/>
<path stroke="#8e8e8f" vector-effect="non-scaling-stroke" d="
  M 126.00 179.89
  A 1.53 1.52 29.1 0 1 128.82 179.09
  L 133.36 186.37
  Q 133.65 186.85 134.21 186.86
  L 143.23 187.05
  Q 143.79 187.06 143.96 186.51
  L 145.20 182.30
  Q 145.37 181.75 145.94 181.75
  L 152.90 181.75
  A 0.67 0.66 -8.1 0 1 153.54 182.22
  L 154.85 186.55
  Q 154.99 187.00 155.46 187.00
  L 159.21 187.00
  Q 159.90 187.00 159.67 186.35
  L 152.43 165.62
  Q 152.22 165.00 151.56 165.00
  L 147.01 165.00
  Q 146.57 165.00 146.42 165.42
  L 139.17 186.18
  A 0.50 0.50 0.0 0 1 138.29 186.29
  L 132.78 177.96
  Q 132.50 177.52 132.94 177.25
  Q 137.59 174.35 136.12 169.59
  C 134.40 163.97 126.33 165.17 121.97 165.29
  Q 121.50 165.30 121.50 165.77
  L 121.50 186.54
  Q 121.50 187.22 122.15 187.02
  Q 123.64 186.56 125.10 186.95
  Q 126.00 187.20 126.00 186.26
  L 126.00 179.89"
/>
<path stroke="#8e8e8f" vector-effect="non-scaling-stroke" d="
  M 52.56 174.53
  A 0.32 0.32 0.0 0 1 52.25 174.21
  L 52.25 169.32
  A 0.32 0.32 0.0 0 1 52.57 169.00
  L 59.93 169.01
  A 0.32 0.32 0.0 0 0 60.25 168.69
  L 60.25 165.57
  A 0.32 0.32 0.0 0 0 59.93 165.25
  L 48.07 165.25
  A 0.32 0.32 0.0 0 0 47.75 165.57
  L 47.75 186.68
  A 0.32 0.32 0.0 0 0 48.07 187.00
  L 51.93 187.00
  A 0.32 0.32 0.0 0 0 52.25 186.68
  L 52.25 178.57
  A 0.32 0.32 0.0 0 1 52.57 178.25
  L 59.18 178.25
  A 0.32 0.32 0.0 0 0 59.50 177.93
  L 59.50 175.12
  A 0.32 0.32 0.0 0 0 59.19 174.80
  L 52.56 174.53"
/>
<path stroke="#8e8e8f" vector-effect="non-scaling-stroke" d="
  M 69.58 173.75
  A 0.33 0.33 0.0 0 1 69.25 173.42
  L 69.25 169.33
  A 0.33 0.33 0.0 0 1 69.58 169.00
  L 76.67 169.00
  A 0.33 0.33 0.0 0 0 77.00 168.67
  L 77.00 165.58
  A 0.33 0.33 0.0 0 0 76.67 165.25
  L 65.08 165.25
  A 0.33 0.33 0.0 0 0 64.75 165.58
  L 64.75 186.42
  A 0.33 0.33 0.0 0 0 65.07 186.75
  L 76.66 186.99
  A 0.33 0.33 0.0 0 0 77.00 186.66
  L 77.00 183.42
  A 0.33 0.33 0.0 0 0 76.66 183.09
  L 69.44 183.27
  A 0.33 0.33 0.0 0 1 69.10 182.94
  L 69.10 177.83
  A 0.33 0.33 0.0 0 1 69.43 177.50
  L 76.17 177.50
  A 0.33 0.33 0.0 0 0 76.50 177.17
  L 76.50 174.08
  A 0.33 0.33 0.0 0 0 76.17 173.75
  L 69.58 173.75"
/>
<path stroke="#8e8e8f" vector-effect="non-scaling-stroke" d="
  M 81.70 165.49
  L 81.78 186.63
  A 0.26 0.26 0.0 0 0 82.04 186.89
  L 89.52 186.86
  A 10.26 10.11 -0.2 0 0 99.74 176.72
  L 99.74 175.28
  A 10.26 10.11 -0.2 0 0 89.44 165.20
  L 81.96 165.23
  A 0.26 0.26 0.0 0 0 81.70 165.49"
/>
<path stroke="#8e8e8f" vector-effect="non-scaling-stroke" d="
  M 167.63 183.26
  A 0.38 0.38 0.0 0 1 167.25 182.88
  L 167.25 165.63
  A 0.38 0.38 0.0 0 0 166.87 165.25
  L 163.38 165.25
  A 0.38 0.38 0.0 0 0 163.00 165.63
  L 163.00 186.64
  A 0.38 0.38 0.0 0 0 163.38 187.02
  L 175.87 186.95
  A 0.38 0.38 0.0 0 0 176.25 186.57
  L 176.25 183.60
  A 0.38 0.38 0.0 0 0 175.87 183.22
  L 167.63 183.26"
/>
<path stroke="#8e8e8f" vector-effect="non-scaling-stroke" d="
  M 109.0018 196.8225
  A 1.23 1.11 -44.2 0 0 107.3461 196.8842
  A 1.23 1.11 -44.2 0 0 107.2382 198.5375
  A 1.23 1.11 -44.2 0 0 108.8939 198.4758
  A 1.23 1.11 -44.2 0 0 109.0018 196.8225"
/>
<path stroke="#8e8e8f" vector-effect="non-scaling-stroke" d="
  M 59.55 211.56
  C 46.96 215.43 48.15 194.08 59.59 199.23
  Q 60.16 199.49 60.43 198.92
  L 60.73 198.30
  Q 61.06 197.61 60.33 197.38
  C 44.40 192.30 44.99 218.38 59.93 213.05
  A 0.78 0.78 0.0 0 0 60.45 212.41
  Q 60.61 211.23 59.55 211.56"
/>
<path stroke="#8e8e8f" vector-effect="non-scaling-stroke" d="
  M 79.12 202.50
  L 81.88 202.50
  Q 82.64 202.50 82.26 201.85
  L 82.01 201.41
  Q 81.77 201.00 81.29 201.00
  L 79.16 201.00
  A 0.61 0.61 0.0 0 1 78.55 200.42
  L 78.42 198.31
  A 0.47 0.47 0.0 0 0 77.48 198.31
  Q 77.33 200.85 74.99 201.74
  A 0.38 0.38 0.0 0 0 75.11 202.47
  L 76.08 202.52
  Q 76.67 202.54 76.70 203.13
  C 76.86 207.05 74.82 214.68 81.85 213.43
  A 0.68 0.68 0.0 0 0 81.80 212.08
  L 79.36 211.82
  A 0.79 0.78 2.6 0 1 78.66 211.07
  L 78.45 203.20
  A 0.68 0.67 89.2 0 1 79.12 202.50"
/>
<path stroke="#8e8e8f" vector-effect="non-scaling-stroke" d="
  M 71.00 212.41
  L 71.87 213.55
  A 0.38 0.38 0.0 0 0 72.55 213.36
  C 73.17 207.92 74.68 197.90 64.76 201.54
  A 0.75 0.75 0.0 0 0 65.00 202.99
  C 67.21 203.05 69.11 201.19 70.86 203.95
  A 1.34 1.34 0.0 0 1 69.69 206.00
  C 57.71 205.68 63.70 217.90 70.18 212.33
  Q 70.64 211.93 71.00 212.41"
/>
<path stroke="#8e8e8f" vector-effect="non-scaling-stroke" d="
  M 91.38 205.92
  C 88.69 206.15 84.64 206.05 83.98 209.48
  C 83.11 214.00 88.68 214.54 91.53 212.18
  Q 92.10 211.70 92.34 212.40
  L 92.66 213.34
  A 0.56 0.56 0.0 0 0 93.75 213.16
  L 93.75 203.31
  A 1.30 1.29 19.1 0 0 93.25 202.29
  Q 89.90 199.61 85.90 201.67
  Q 85.66 201.80 85.56 202.05
  Q 85.30 202.73 85.97 202.96
  Q 86.33 203.08 86.69 202.96
  C 88.78 202.26 92.23 201.85 91.96 205.33
  Q 91.92 205.87 91.38 205.92"
/>
<path stroke="#8e8e8f" vector-effect="non-scaling-stroke" d="
  M 99.29 202.38
  L 99.17 201.49
  Q 99.12 201.10 98.73 201.10
  L 98.42 201.10
  Q 97.75 201.10 97.75 201.77
  L 97.75 212.78
  Q 97.75 213.50 98.47 213.50
  Q 98.63 213.50 98.78 213.50
  A 0.69 0.68 0.8 0 0 99.49 212.82
  C 99.46 209.04 98.36 202.47 104.28 202.41
  Q 105.12 202.40 104.76 201.63
  L 104.58 201.24
  Q 104.35 200.74 103.79 200.76
  Q 101.48 200.84 100.06 202.59
  Q 99.43 203.37 99.29 202.38"
/>
<path stroke="#8e8e8f" vector-effect="non-scaling-stroke" d="
  M 115.04 201.82
  L 113.84 201.00
  A 0.54 0.53 17.2 0 0 113.00 201.44
  L 113.00 212.84
  A 0.30 0.28 -76.8 0 0 113.15 213.10
  L 113.94 213.49
  A 0.59 0.59 0.0 0 0 114.79 212.93
  C 114.61 209.82 113.95 199.02 120.93 203.24
  A 1.01 1.01 0.0 0 1 121.41 204.08
  L 121.54 212.85
  Q 121.55 213.23 121.90 213.37
  Q 123.30 213.97 123.28 212.75
  Q 123.19 208.33 123.27 203.68
  A 1.30 1.30 0.0 0 0 122.94 202.79
  Q 119.79 199.32 115.94 201.83
  Q 115.49 202.13 115.04 201.82"
/>
<path stroke="#8e8e8f" vector-effect="non-scaling-stroke" d="
  M 129.01 207.77
  L 136.33 207.57
  Q 136.74 207.56 136.82 207.16
  C 138.09 201.08 130.26 198.12 127.17 203.95
  C 123.80 210.28 129.83 215.32 136.18 212.98
  A 0.77 0.77 0.0 0 0 135.77 211.50
  C 132.95 212.02 128.77 212.51 128.52 208.31
  Q 128.49 207.79 129.01 207.77"
/>
<path stroke="#8e8e8f" vector-effect="non-scaling-stroke" d="
  M 142.37 202.49
  L 141.56 201.36
  Q 141.25 200.94 140.75 201.02
  Q 140.11 201.12 140.14 201.82
  Q 140.35 207.37 140.21 212.98
  A 0.55 0.54 83.2 0 0 140.89 213.52
  L 141.68 213.32
  Q 142.29 213.16 142.22 212.54
  Q 141.62 206.82 142.40 204.67
  C 143.56 201.49 148.57 201.40 148.67 205.76
  Q 148.75 209.24 148.76 212.75
  Q 148.77 213.25 149.26 213.25
  L 149.99 213.25
  Q 150.51 213.25 150.51 212.73
  C 150.47 208.51 152.36 198.04 143.65 201.46
  Q 143.14 201.66 142.98 202.05
  Q 142.65 202.88 142.37 202.49"
/>
<path stroke="#8e8e8f" vector-effect="non-scaling-stroke" d="
  M 160.00 211.35
  C 157.67 212.91 155.88 211.08 154.06 211.60
  A 0.77 0.77 0.0 0 0 154.05 213.07
  C 156.69 213.89 163.83 214.08 162.11 209.11
  C 161.41 207.08 158.32 206.19 156.47 205.55
  A 1.54 1.54 0.0 0 1 156.60 202.61
  C 157.95 202.28 160.65 203.18 161.37 202.92
  Q 161.80 202.77 161.89 202.30
  A 0.86 0.86 0.0 0 0 161.35 201.33
  C 159.24 200.53 154.36 200.37 153.74 203.50
  C 153.10 206.75 157.59 207.80 159.84 208.91
  A 1.42 1.41 -48.9 0 1 160.00 211.35"
/>
<path stroke="#8e8e8f" vector-effect="non-scaling-stroke" d="
  M 167.30 207.69
  L 174.79 207.43
  Q 175.19 207.41 175.21 207.02
  Q 175.49 202.74 172.07 201.24
  C 162.99 197.26 160.92 217.83 174.40 213.01
  A 0.79 0.78 29.6 0 0 173.98 211.50
  C 171.06 212.05 167.17 212.45 166.80 208.26
  Q 166.75 207.71 167.30 207.69"
/>
<path stroke="#8e8e8f" vector-effect="non-scaling-stroke" d="
  M 109.0480 201.8369
  A 0.77 0.77 0.0 0 0 108.2833 201.0615
  L 107.8834 201.0588
  A 0.77 0.77 0.0 0 0 107.1080 201.8234
  L 107.0320 212.7031
  A 0.77 0.77 0.0 0 0 107.7967 213.4785
  L 108.1966 213.4812
  A 0.77 0.77 0.0 0 0 108.9720 212.7166
  L 109.0480 201.8369"
/>
<path stroke="#8e8e8f" vector-effect="non-scaling-stroke" d="
  M 185.5056 147.5435
  A 4.89 4.89 0.0 0 0 180.6930 142.5773
  L 179.8731 142.5644
  A 4.89 4.89 0.0 0 0 174.9069 147.3770
  L 174.8344 151.9965
  A 4.89 4.89 0.0 0 0 179.6470 156.9627
  L 180.4669 156.9756
  A 4.89 4.89 0.0 0 0 185.4331 152.1630
  L 185.5056 147.5435"
/>
<path stroke="#8e8e8f" vector-effect="non-scaling-stroke" d="
  M 126.00 169.53
  L 126.00 174.37
  A 0.39 0.39 0.0 0 0 126.39 174.76
  L 128.69 174.76
  A 3.07 2.62 0.0 0 0 131.76 172.14
  L 131.76 171.76
  A 3.07 2.62 0.0 0 0 128.69 169.14
  L 126.39 169.14
  A 0.39 0.39 0.0 0 0 126.00 169.53"
/>
<path stroke="#8e8e8f" vector-effect="non-scaling-stroke" d="
  M 151.96 177.02
  L 149.74 169.77
  Q 149.42 168.71 149.09 169.77
  L 146.82 177.24
  A 0.43 0.43 0.0 0 0 147.22 177.80
  L 151.36 177.83
  A 0.63 0.62 81.8 0 0 151.96 177.02"
/>
<path stroke="#8e8e8f" vector-effect="non-scaling-stroke" d="
  M 86.24 169.43
  L 86.26 182.61
  A 0.42 0.42 0.0 0 0 86.68 183.03
  L 89.08 183.02
  A 5.70 5.53 -0.1 0 0 94.77 177.48
  L 94.77 174.52
  A 5.70 5.53 -0.1 0 0 89.06 169.00
  L 86.66 169.01
  A 0.42 0.42 0.0 0 0 86.24 169.43"
/>
<path stroke="#8e8e8f" vector-effect="non-scaling-stroke" d="
  M 65.51 211.52
  C 68.12 212.99 71.25 211.11 70.72 208.02
  Q 70.65 207.59 70.21 207.53
  Q 67.77 207.21 65.60 208.29
  A 1.83 1.83 0.0 0 0 65.51 211.52"
/>
<path stroke="#8e8e8f" vector-effect="non-scaling-stroke" d="
  M 91.31 207.48
  C 89.64 207.30 85.00 207.67 86.06 210.73
  A 1.74 1.73 84.9 0 0 87.43 211.88
  Q 91.75 212.54 92.00 208.29
  Q 92.04 207.56 91.31 207.48"
/>
<path stroke="#8e8e8f" vector-effect="non-scaling-stroke" d="
  M 128.79 206.05
  L 134.79 205.95
  A 0.23 0.23 0.0 0 0 135.02 205.71
  L 135.01 205.57
  A 3.13 3.08 89.0 0 0 131.88 202.50
  L 131.58 202.50
  A 3.13 3.08 89.0 0 0 128.55 205.69
  L 128.56 205.83
  A 0.23 0.23 0.0 0 0 128.79 206.05"
/>
<path stroke="#8e8e8f" vector-effect="non-scaling-stroke" d="
  M 167.37 205.98
  L 172.77 206.00
  A 0.40 0.40 0.0 0 0 173.17 205.61
  L 173.17 205.50
  A 2.99 2.93 -89.7 0 0 170.26 202.49
  L 169.92 202.49
  A 2.99 2.93 -89.7 0 0 166.97 205.46
  L 166.97 205.57
  A 0.40 0.40 0.0 0 0 167.37 205.98"
/>
</g>
<path fill="#ffffff" d="
  M 0.00 0.00
  L 222.00 0.00
  L 222.00 223.00
  L 0.00 223.00
  L 0.00 0.00
  Z
  M 97.69 33.74
  A 12.02 12.02 0.0 0 0 85.67 21.72
  A 12.02 12.02 0.0 0 0 73.65 33.74
  A 12.02 12.02 0.0 0 0 85.67 45.76
  A 12.02 12.02 0.0 0 0 97.69 33.74
  Z
  M 122.7655 24.8592
  A 2.09 2.09 0.0 0 0 120.6792 22.7656
  L 102.8592 22.7345
  A 2.09 2.09 0.0 0 0 100.7656 24.8208
  L 100.7345 42.6408
  A 2.09 2.09 0.0 0 0 102.8208 44.7344
  L 120.6408 44.7655
  A 2.09 2.09 0.0 0 0 122.7344 42.6792
  L 122.7655 24.8592
  Z
  M 148.9844 24.8108
  A 2.08 2.08 0.0 0 0 146.9008 22.7345
  L 129.0808 22.7656
  A 2.08 2.08 0.0 0 0 127.0044 24.8492
  L 127.0356 42.6892
  A 2.08 2.08 0.0 0 0 129.1192 44.7655
  L 146.9392 44.7344
  A 2.08 2.08 0.0 0 0 149.0156 42.6508
  L 148.9844 24.8108
  Z
  M 96.5153 51.3592
  A 2.34 2.34 0.0 0 0 94.1794 49.0151
  L 76.8594 48.9849
  A 2.34 2.34 0.0 0 0 74.5153 51.3208
  L 74.4847 68.8608
  A 2.34 2.34 0.0 0 0 76.8206 71.2049
  L 94.1406 71.2351
  A 2.34 2.34 0.0 0 0 96.4847 68.8992
  L 96.5153 51.3592
  Z
  M 122.7247 51.2808
  A 2.29 2.29 0.0 0 0 120.4307 48.9948
  L 103.0307 49.0252
  A 2.29 2.29 0.0 0 0 100.7447 51.3192
  L 100.7753 68.8392
  A 2.29 2.29 0.0 0 0 103.0693 71.1252
  L 120.4693 71.0948
  A 2.29 2.29 0.0 0 0 122.7553 68.8008
  L 122.7247 51.2808
  Z
  M 96.4745 77.4708
  A 2.24 2.24 0.0 0 0 94.2306 75.2347
  L 76.7106 75.2653
  A 2.24 2.24 0.0 0 0 74.4745 77.5092
  L 74.5055 95.2692
  A 2.24 2.24 0.0 0 0 76.7494 97.5053
  L 94.2694 97.4747
  A 2.24 2.24 0.0 0 0 96.5055 95.2308
  L 96.4745 77.4708
  Z
  M 122.7553 77.6192
  A 2.34 2.34 0.0 0 0 120.4194 75.2751
  L 103.1194 75.2449
  A 2.34 2.34 0.0 0 0 100.7753 77.5808
  L 100.7447 95.1408
  A 2.34 2.34 0.0 0 0 103.0806 97.4849
  L 120.3806 97.5151
  A 2.34 2.34 0.0 0 0 122.7247 95.1792
  L 122.7553 77.6192
  Z
  M 148.9849 77.7008
  A 2.47 2.47 0.0 0 0 146.5106 75.2351
  L 129.4706 75.2649
  A 2.47 2.47 0.0 0 0 127.0049 77.7392
  L 127.0351 95.0392
  A 2.47 2.47 0.0 0 0 129.5094 97.5049
  L 146.5494 97.4751
  A 2.47 2.47 0.0 0 0 149.0151 95.0008
  L 148.9849 77.7008
  Z
  M 122.7610 103.8184
  A 2.15 2.15 0.0 0 0 120.6185 101.6609
  L 102.9586 101.5992
  A 2.15 2.15 0.0 0 0 100.8011 103.7417
  L 100.7390 121.5216
  A 2.15 2.15 0.0 0 0 102.8815 123.6791
  L 120.5414 123.7408
  A 2.15 2.15 0.0 0 0 122.6989 121.5983
  L 122.7610 103.8184
  Z
  M 96.4957 103.6192
  A 1.85 1.85 0.0 0 0 94.6490 101.7660
  L 76.3690 101.7341
  A 1.85 1.85 0.0 0 0 74.5158 103.5808
  L 74.4843 121.6408
  A 1.85 1.85 0.0 0 0 76.3310 123.4940
  L 94.6110 123.5259
  A 1.85 1.85 0.0 0 0 96.4642 121.6792
  L 96.4957 103.6192
  Z
  M 190.4337 147.9542
  A 9.38 9.38 0.0 0 0 181.0210 138.6070
  L 179.2410 138.6132
  A 9.38 9.38 0.0 0 0 169.8938 148.0259
  L 169.9063 151.5858
  A 9.38 9.38 0.0 0 0 179.3190 160.9330
  L 181.0990 160.9268
  A 9.38 9.38 0.0 0 0 190.4462 151.5141
  L 190.4337 147.9542
  Z
  M 37.03 139.22
  A 0.26 0.26 0.0 0 0 36.77 138.96
  L 33.01 138.96
  A 0.26 0.26 0.0 0 0 32.75 139.22
  L 32.75 160.48
  A 0.26 0.26 0.0 0 0 33.01 160.74
  L 36.77 160.74
  A 0.26 0.26 0.0 0 0 37.03 160.48
  L 37.03 139.22
  Z
  M 71.21 145.47
  L 71.43 143.40
  A 0.88 0.87 88.3 0 1 72.15 142.63
  Q 75.44 142.08 78.44 143.49
  A 0.49 0.49 0.0 0 0 79.10 143.23
  L 80.13 140.61
  Q 80.28 140.24 79.93 140.06
  C 75.91 137.99 68.27 137.56 66.84 143.23
  C 65.43 148.87 70.69 150.53 74.52 152.77
  C 76.13 153.71 76.51 155.17 75.23 156.60
  A 1.51 1.51 0.0 0 1 74.23 157.10
  Q 70.44 157.41 67.02 155.67
  Q 66.50 155.41 66.50 155.99
  L 66.50 159.19
  Q 66.50 159.69 66.96 159.87
  Q 71.96 161.90 76.24 160.48
  C 79.96 159.24 81.78 154.96 79.63 151.49
  C 78.19 149.16 74.03 147.51 71.64 146.27
  A 0.80 0.80 0.0 0 1 71.21 145.47
  Z
  M 141.67 156.23
  C 139.42 158.21 134.83 157.39 134.55 153.73
  Q 134.02 146.70 134.31 139.58
  Q 134.34 138.98 133.74 138.98
  L 130.45 139.01
  A 0.61 0.60 -88.5 0 0 129.85 139.59
  Q 129.45 147.09 130.04 154.57
  C 130.63 162.09 142.02 162.67 146.04 158.05
  C 148.56 155.13 147.50 143.69 147.50 139.56
  Q 147.50 139.00 146.95 139.00
  L 143.69 139.00
  Q 142.99 139.00 143.04 139.70
  C 143.26 142.88 144.03 154.16 141.67 156.23
  Z
  M 46.78 144.98
  A 0.20 0.20 0.0 0 1 47.15 144.87
  L 56.02 160.30
  Q 56.28 160.75 56.81 160.75
  L 61.50 160.75
  Q 62.00 160.75 62.00 160.25
  L 62.00 139.50
  Q 62.00 139.00 61.50 139.00
  L 58.60 139.00
  Q 57.94 139.00 57.95 139.66
  L 58.13 154.54
  A 0.22 0.21 -60.1 0 1 57.73 154.65
  L 48.91 139.44
  Q 48.65 139.00 48.15 139.00
  L 43.50 139.00
  Q 43.00 139.00 43.00 139.50
  L 43.00 160.25
  Q 43.00 160.75 43.50 160.75
  L 46.42 160.75
  Q 47.09 160.75 47.08 160.08
  L 46.78 144.98
  Z
  M 92.75 143.20
  A 0.46 0.46 0.0 0 1 93.22 142.74
  L 98.28 142.79
  A 0.46 0.46 0.0 0 0 98.75 142.33
  L 98.75 139.46
  A 0.46 0.46 0.0 0 0 98.29 139.00
  L 82.71 139.00
  A 0.46 0.46 0.0 0 0 82.25 139.46
  L 82.25 142.29
  A 0.46 0.46 0.0 0 0 82.71 142.75
  L 87.70 142.75
  A 0.46 0.46 0.0 0 1 88.16 143.21
  L 88.30 160.29
  A 0.46 0.46 0.0 0 0 88.76 160.75
  L 92.29 160.75
  A 0.46 0.46 0.0 0 0 92.75 160.29
  L 92.75 143.20
  Z
  M 106.4630 139.2625
  A 0.27 0.27 0.0 0 0 106.1920 138.9935
  L 102.4121 139.0067
  A 0.27 0.27 0.0 0 0 102.1430 139.2776
  L 102.2170 160.4775
  A 0.27 0.27 0.0 0 0 102.4880 160.7465
  L 106.2679 160.7333
  A 0.27 0.27 0.0 0 0 106.5370 160.4624
  L 106.4630 139.2625
  Z
  M 120.50 143.08
  A 0.33 0.33 0.0 0 1 120.83 142.75
  L 126.17 142.75
  A 0.33 0.33 0.0 0 0 126.50 142.42
  L 126.50 139.33
  A 0.33 0.33 0.0 0 0 126.17 139.00
  L 110.33 139.00
  A 0.33 0.33 0.0 0 0 110.00 139.33
  L 110.00 142.42
  A 0.33 0.33 0.0 0 0 110.33 142.75
  L 115.58 142.75
  A 0.33 0.33 0.0 0 1 115.91 143.08
  L 116.05 160.42
  A 0.33 0.33 0.0 0 0 116.38 160.75
  L 120.17 160.75
  A 0.33 0.33 0.0 0 0 120.50 160.42
  L 120.50 143.08
  Z
  M 161.50 143.13
  A 0.38 0.38 0.0 0 1 161.88 142.75
  L 167.12 142.75
  A 0.38 0.38 0.0 0 0 167.50 142.37
  L 167.50 139.38
  A 0.38 0.38 0.0 0 0 167.12 139.00
  L 151.38 139.00
  A 0.38 0.38 0.0 0 0 151.00 139.38
  L 151.00 142.37
  A 0.38 0.38 0.0 0 0 151.38 142.75
  L 156.52 142.75
  A 0.38 0.38 0.0 0 1 156.90 143.13
  L 157.05 160.37
  A 0.38 0.38 0.0 0 0 157.43 160.75
  L 161.12 160.75
  A 0.38 0.38 0.0 0 0 161.50 160.37
  L 161.50 143.13
  Z
  M 108.75 177.88
  A 0.38 0.38 0.0 0 1 109.13 177.50
  L 115.87 177.50
  A 0.38 0.38 0.0 0 0 116.25 177.12
  L 116.25 174.13
  A 0.38 0.38 0.0 0 0 115.87 173.75
  L 109.13 173.75
  A 0.38 0.38 0.0 0 1 108.75 173.37
  L 108.75 169.38
  A 0.38 0.38 0.0 0 1 109.13 169.00
  L 116.37 169.00
  A 0.38 0.38 0.0 0 0 116.75 168.62
  L 116.75 165.62
  A 0.38 0.38 0.0 0 0 116.37 165.24
  L 104.63 165.25
  A 0.38 0.38 0.0 0 0 104.25 165.63
  L 104.25 186.55
  A 0.38 0.38 0.0 0 0 104.63 186.93
  L 116.37 187.03
  A 0.38 0.38 0.0 0 0 116.75 186.65
  L 116.75 183.63
  A 0.38 0.38 0.0 0 0 116.37 183.25
  L 109.13 183.25
  A 0.38 0.38 0.0 0 1 108.75 182.87
  L 108.75 177.88
  Z
  M 126.00 179.89
  A 1.53 1.52 29.1 0 1 128.82 179.09
  L 133.36 186.37
  Q 133.65 186.85 134.21 186.86
  L 143.23 187.05
  Q 143.79 187.06 143.96 186.51
  L 145.20 182.30
  Q 145.37 181.75 145.94 181.75
  L 152.90 181.75
  A 0.67 0.66 -8.1 0 1 153.54 182.22
  L 154.85 186.55
  Q 154.99 187.00 155.46 187.00
  L 159.21 187.00
  Q 159.90 187.00 159.67 186.35
  L 152.43 165.62
  Q 152.22 165.00 151.56 165.00
  L 147.01 165.00
  Q 146.57 165.00 146.42 165.42
  L 139.17 186.18
  A 0.50 0.50 0.0 0 1 138.29 186.29
  L 132.78 177.96
  Q 132.50 177.52 132.94 177.25
  Q 137.59 174.35 136.12 169.59
  C 134.40 163.97 126.33 165.17 121.97 165.29
  Q 121.50 165.30 121.50 165.77
  L 121.50 186.54
  Q 121.50 187.22 122.15 187.02
  Q 123.64 186.56 125.10 186.95
  Q 126.00 187.20 126.00 186.26
  L 126.00 179.89
  Z
  M 52.56 174.53
  A 0.32 0.32 0.0 0 1 52.25 174.21
  L 52.25 169.32
  A 0.32 0.32 0.0 0 1 52.57 169.00
  L 59.93 169.01
  A 0.32 0.32 0.0 0 0 60.25 168.69
  L 60.25 165.57
  A 0.32 0.32 0.0 0 0 59.93 165.25
  L 48.07 165.25
  A 0.32 0.32 0.0 0 0 47.75 165.57
  L 47.75 186.68
  A 0.32 0.32 0.0 0 0 48.07 187.00
  L 51.93 187.00
  A 0.32 0.32 0.0 0 0 52.25 186.68
  L 52.25 178.57
  A 0.32 0.32 0.0 0 1 52.57 178.25
  L 59.18 178.25
  A 0.32 0.32 0.0 0 0 59.50 177.93
  L 59.50 175.12
  A 0.32 0.32 0.0 0 0 59.19 174.80
  L 52.56 174.53
  Z
  M 69.58 173.75
  A 0.33 0.33 0.0 0 1 69.25 173.42
  L 69.25 169.33
  A 0.33 0.33 0.0 0 1 69.58 169.00
  L 76.67 169.00
  A 0.33 0.33 0.0 0 0 77.00 168.67
  L 77.00 165.58
  A 0.33 0.33 0.0 0 0 76.67 165.25
  L 65.08 165.25
  A 0.33 0.33 0.0 0 0 64.75 165.58
  L 64.75 186.42
  A 0.33 0.33 0.0 0 0 65.07 186.75
  L 76.66 186.99
  A 0.33 0.33 0.0 0 0 77.00 186.66
  L 77.00 183.42
  A 0.33 0.33 0.0 0 0 76.66 183.09
  L 69.44 183.27
  A 0.33 0.33 0.0 0 1 69.10 182.94
  L 69.10 177.83
  A 0.33 0.33 0.0 0 1 69.43 177.50
  L 76.17 177.50
  A 0.33 0.33 0.0 0 0 76.50 177.17
  L 76.50 174.08
  A 0.33 0.33 0.0 0 0 76.17 173.75
  L 69.58 173.75
  Z
  M 81.70 165.49
  L 81.78 186.63
  A 0.26 0.26 0.0 0 0 82.04 186.89
  L 89.52 186.86
  A 10.26 10.11 -0.2 0 0 99.74 176.72
  L 99.74 175.28
  A 10.26 10.11 -0.2 0 0 89.44 165.20
  L 81.96 165.23
  A 0.26 0.26 0.0 0 0 81.70 165.49
  Z
  M 167.63 183.26
  A 0.38 0.38 0.0 0 1 167.25 182.88
  L 167.25 165.63
  A 0.38 0.38 0.0 0 0 166.87 165.25
  L 163.38 165.25
  A 0.38 0.38 0.0 0 0 163.00 165.63
  L 163.00 186.64
  A 0.38 0.38 0.0 0 0 163.38 187.02
  L 175.87 186.95
  A 0.38 0.38 0.0 0 0 176.25 186.57
  L 176.25 183.60
  A 0.38 0.38 0.0 0 0 175.87 183.22
  L 167.63 183.26
  Z
  M 109.0018 196.8225
  A 1.23 1.11 -44.2 0 0 107.3461 196.8842
  A 1.23 1.11 -44.2 0 0 107.2382 198.5375
  A 1.23 1.11 -44.2 0 0 108.8939 198.4758
  A 1.23 1.11 -44.2 0 0 109.0018 196.8225
  Z
  M 59.55 211.56
  C 46.96 215.43 48.15 194.08 59.59 199.23
  Q 60.16 199.49 60.43 198.92
  L 60.73 198.30
  Q 61.06 197.61 60.33 197.38
  C 44.40 192.30 44.99 218.38 59.93 213.05
  A 0.78 0.78 0.0 0 0 60.45 212.41
  Q 60.61 211.23 59.55 211.56
  Z
  M 79.12 202.50
  L 81.88 202.50
  Q 82.64 202.50 82.26 201.85
  L 82.01 201.41
  Q 81.77 201.00 81.29 201.00
  L 79.16 201.00
  A 0.61 0.61 0.0 0 1 78.55 200.42
  L 78.42 198.31
  A 0.47 0.47 0.0 0 0 77.48 198.31
  Q 77.33 200.85 74.99 201.74
  A 0.38 0.38 0.0 0 0 75.11 202.47
  L 76.08 202.52
  Q 76.67 202.54 76.70 203.13
  C 76.86 207.05 74.82 214.68 81.85 213.43
  A 0.68 0.68 0.0 0 0 81.80 212.08
  L 79.36 211.82
  A 0.79 0.78 2.6 0 1 78.66 211.07
  L 78.45 203.20
  A 0.68 0.67 89.2 0 1 79.12 202.50
  Z
  M 71.00 212.41
  L 71.87 213.55
  A 0.38 0.38 0.0 0 0 72.55 213.36
  C 73.17 207.92 74.68 197.90 64.76 201.54
  A 0.75 0.75 0.0 0 0 65.00 202.99
  C 67.21 203.05 69.11 201.19 70.86 203.95
  A 1.34 1.34 0.0 0 1 69.69 206.00
  C 57.71 205.68 63.70 217.90 70.18 212.33
  Q 70.64 211.93 71.00 212.41
  Z
  M 91.38 205.92
  C 88.69 206.15 84.64 206.05 83.98 209.48
  C 83.11 214.00 88.68 214.54 91.53 212.18
  Q 92.10 211.70 92.34 212.40
  L 92.66 213.34
  A 0.56 0.56 0.0 0 0 93.75 213.16
  L 93.75 203.31
  A 1.30 1.29 19.1 0 0 93.25 202.29
  Q 89.90 199.61 85.90 201.67
  Q 85.66 201.80 85.56 202.05
  Q 85.30 202.73 85.97 202.96
  Q 86.33 203.08 86.69 202.96
  C 88.78 202.26 92.23 201.85 91.96 205.33
  Q 91.92 205.87 91.38 205.92
  Z
  M 99.29 202.38
  L 99.17 201.49
  Q 99.12 201.10 98.73 201.10
  L 98.42 201.10
  Q 97.75 201.10 97.75 201.77
  L 97.75 212.78
  Q 97.75 213.50 98.47 213.50
  Q 98.63 213.50 98.78 213.50
  A 0.69 0.68 0.8 0 0 99.49 212.82
  C 99.46 209.04 98.36 202.47 104.28 202.41
  Q 105.12 202.40 104.76 201.63
  L 104.58 201.24
  Q 104.35 200.74 103.79 200.76
  Q 101.48 200.84 100.06 202.59
  Q 99.43 203.37 99.29 202.38
  Z
  M 115.04 201.82
  L 113.84 201.00
  A 0.54 0.53 17.2 0 0 113.00 201.44
  L 113.00 212.84
  A 0.30 0.28 -76.8 0 0 113.15 213.10
  L 113.94 213.49
  A 0.59 0.59 0.0 0 0 114.79 212.93
  C 114.61 209.82 113.95 199.02 120.93 203.24
  A 1.01 1.01 0.0 0 1 121.41 204.08
  L 121.54 212.85
  Q 121.55 213.23 121.90 213.37
  Q 123.30 213.97 123.28 212.75
  Q 123.19 208.33 123.27 203.68
  A 1.30 1.30 0.0 0 0 122.94 202.79
  Q 119.79 199.32 115.94 201.83
  Q 115.49 202.13 115.04 201.82
  Z
  M 129.01 207.77
  L 136.33 207.57
  Q 136.74 207.56 136.82 207.16
  C 138.09 201.08 130.26 198.12 127.17 203.95
  C 123.80 210.28 129.83 215.32 136.18 212.98
  A 0.77 0.77 0.0 0 0 135.77 211.50
  C 132.95 212.02 128.77 212.51 128.52 208.31
  Q 128.49 207.79 129.01 207.77
  Z
  M 142.37 202.49
  L 141.56 201.36
  Q 141.25 200.94 140.75 201.02
  Q 140.11 201.12 140.14 201.82
  Q 140.35 207.37 140.21 212.98
  A 0.55 0.54 83.2 0 0 140.89 213.52
  L 141.68 213.32
  Q 142.29 213.16 142.22 212.54
  Q 141.62 206.82 142.40 204.67
  C 143.56 201.49 148.57 201.40 148.67 205.76
  Q 148.75 209.24 148.76 212.75
  Q 148.77 213.25 149.26 213.25
  L 149.99 213.25
  Q 150.51 213.25 150.51 212.73
  C 150.47 208.51 152.36 198.04 143.65 201.46
  Q 143.14 201.66 142.98 202.05
  Q 142.65 202.88 142.37 202.49
  Z
  M 160.00 211.35
  C 157.67 212.91 155.88 211.08 154.06 211.60
  A 0.77 0.77 0.0 0 0 154.05 213.07
  C 156.69 213.89 163.83 214.08 162.11 209.11
  C 161.41 207.08 158.32 206.19 156.47 205.55
  A 1.54 1.54 0.0 0 1 156.60 202.61
  C 157.95 202.28 160.65 203.18 161.37 202.92
  Q 161.80 202.77 161.89 202.30
  A 0.86 0.86 0.0 0 0 161.35 201.33
  C 159.24 200.53 154.36 200.37 153.74 203.50
  C 153.10 206.75 157.59 207.80 159.84 208.91
  A 1.42 1.41 -48.9 0 1 160.00 211.35
  Z
  M 167.30 207.69
  L 174.79 207.43
  Q 175.19 207.41 175.21 207.02
  Q 175.49 202.74 172.07 201.24
  C 162.99 197.26 160.92 217.83 174.40 213.01
  A 0.79 0.78 29.6 0 0 173.98 211.50
  C 171.06 212.05 167.17 212.45 166.80 208.26
  Q 166.75 207.71 167.30 207.69
  Z
  M 109.0480 201.8369
  A 0.77 0.77 0.0 0 0 108.2833 201.0615
  L 107.8834 201.0588
  A 0.77 0.77 0.0 0 0 107.1080 201.8234
  L 107.0320 212.7031
  A 0.77 0.77 0.0 0 0 107.7967 213.4785
  L 108.1966 213.4812
  A 0.77 0.77 0.0 0 0 108.9720 212.7166
  L 109.0480 201.8369
  Z"
/>
<circle fill="#ca2027" cx="85.67" cy="33.74" r="12.02"/>
<rect fill="#349a46" x="-11.00" y="-11.00" transform="translate(111.75,33.75) rotate(0.1)" width="22.00" height="22.00" rx="2.09"/>
<rect fill="#349a46" x="-10.99" y="-11.00" transform="translate(138.01,33.75) rotate(-0.1)" width="21.98" height="22.00" rx="2.08"/>
<rect fill="#349a46" x="-11.00" y="-11.11" transform="translate(85.50,60.11) rotate(0.1)" width="22.00" height="22.22" rx="2.34"/>
<rect fill="#349a46" x="-10.99" y="-11.05" transform="translate(111.75,60.06) rotate(-0.1)" width="21.98" height="22.10" rx="2.29"/>
<rect fill="#349a46" x="-11.00" y="-11.12" transform="translate(85.49,86.37) rotate(-0.1)" width="22.00" height="22.24" rx="2.24"/>
<rect fill="#349a46" x="-10.99" y="-11.12" transform="translate(111.75,86.38) rotate(0.1)" width="21.98" height="22.24" rx="2.34"/>
<rect fill="#349a46" x="-10.99" y="-11.12" transform="translate(138.01,86.37) rotate(-0.1)" width="21.98" height="22.24" rx="2.47"/>
<rect fill="#349a46" x="-10.98" y="-11.04" transform="translate(111.75,112.67) rotate(0.2)" width="21.96" height="22.08" rx="2.15"/>
<rect fill="#349a46" x="-10.99" y="-10.88" transform="translate(85.49,112.63) rotate(0.1)" width="21.98" height="21.76" rx="1.85"/>
<path fill="#1d1d1e" d="
  M 190.4462 151.5141
  A 9.38 9.38 0.0 0 1 181.0990 160.9268
  L 179.3190 160.9330
  A 9.38 9.38 0.0 0 1 169.9063 151.5858
  L 169.8938 148.0259
  A 9.38 9.38 0.0 0 1 179.2410 138.6132
  L 181.0210 138.6070
  A 9.38 9.38 0.0 0 1 190.4337 147.9542
  L 190.4462 151.5141
  Z
  M 185.5056 147.5435
  A 4.89 4.89 0.0 0 0 180.6930 142.5773
  L 179.8731 142.5644
  A 4.89 4.89 0.0 0 0 174.9069 147.3770
  L 174.8344 151.9965
  A 4.89 4.89 0.0 0 0 179.6470 156.9627
  L 180.4669 156.9756
  A 4.89 4.89 0.0 0 0 185.4331 152.1630
  L 185.5056 147.5435
  Z"
/>
<rect fill="#1d1d1e" x="32.75" y="138.96" width="4.28" height="21.78" rx="0.26"/>
<path fill="#1d1d1e" d="
  M 71.64 146.27
  C 74.03 147.51 78.19 149.16 79.63 151.49
  C 81.78 154.96 79.96 159.24 76.24 160.48
  Q 71.96 161.90 66.96 159.87
  Q 66.50 159.69 66.50 159.19
  L 66.50 155.99
  Q 66.50 155.41 67.02 155.67
  Q 70.44 157.41 74.23 157.10
  A 1.51 1.51 0.0 0 0 75.23 156.60
  C 76.51 155.17 76.13 153.71 74.52 152.77
  C 70.69 150.53 65.43 148.87 66.84 143.23
  C 68.27 137.56 75.91 137.99 79.93 140.06
  Q 80.28 140.24 80.13 140.61
  L 79.10 143.23
  A 0.49 0.49 0.0 0 1 78.44 143.49
  Q 75.44 142.08 72.15 142.63
  A 0.88 0.87 88.3 0 0 71.43 143.40
  L 71.21 145.47
  A 0.80 0.80 0.0 0 0 71.64 146.27
  Z"
/>
<path fill="#1d1d1e" d="
  M 134.55 153.73
  C 134.83 157.39 139.42 158.21 141.67 156.23
  C 144.03 154.16 143.26 142.88 143.04 139.70
  Q 142.99 139.00 143.69 139.00
  L 146.95 139.00
  Q 147.50 139.00 147.50 139.56
  C 147.50 143.69 148.56 155.13 146.04 158.05
  C 142.02 162.67 130.63 162.09 130.04 154.57
  Q 129.45 147.09 129.85 139.59
  A 0.61 0.60 -88.5 0 1 130.45 139.01
  L 133.74 138.98
  Q 134.34 138.98 134.31 139.58
  Q 134.02 146.70 134.55 153.73
  Z"
/>
<path fill="#1d1d1e" d="
  M 46.78 144.98
  L 47.08 160.08
  Q 47.09 160.75 46.42 160.75
  L 43.50 160.75
  Q 43.00 160.75 43.00 160.25
  L 43.00 139.50
  Q 43.00 139.00 43.50 139.00
  L 48.15 139.00
  Q 48.65 139.00 48.91 139.44
  L 57.73 154.65
  A 0.22 0.21 -60.1 0 0 58.13 154.54
  L 57.95 139.66
  Q 57.94 139.00 58.60 139.00
  L 61.50 139.00
  Q 62.00 139.00 62.00 139.50
  L 62.00 160.25
  Q 62.00 160.75 61.50 160.75
  L 56.81 160.75
  Q 56.28 160.75 56.02 160.30
  L 47.15 144.87
  A 0.20 0.20 0.0 0 0 46.78 144.98
  Z"
/>
<path fill="#1d1d1e" d="
  M 92.75 143.20
  L 92.75 160.29
  A 0.46 0.46 0.0 0 1 92.29 160.75
  L 88.76 160.75
  A 0.46 0.46 0.0 0 1 88.30 160.29
  L 88.16 143.21
  A 0.46 0.46 0.0 0 0 87.70 142.75
  L 82.71 142.75
  A 0.46 0.46 0.0 0 1 82.25 142.29
  L 82.25 139.46
  A 0.46 0.46 0.0 0 1 82.71 139.00
  L 98.29 139.00
  A 0.46 0.46 0.0 0 1 98.75 139.46
  L 98.75 142.33
  A 0.46 0.46 0.0 0 1 98.28 142.79
  L 93.22 142.74
  A 0.46 0.46 0.0 0 0 92.75 143.20
  Z"
/>
<rect fill="#1d1d1e" x="-2.16" y="-10.87" transform="translate(104.34,149.87) rotate(-0.2)" width="4.32" height="21.74" rx="0.27"/>
<path fill="#1d1d1e" d="
  M 120.50 143.08
  L 120.50 160.42
  A 0.33 0.33 0.0 0 1 120.17 160.75
  L 116.38 160.75
  A 0.33 0.33 0.0 0 1 116.05 160.42
  L 115.91 143.08
  A 0.33 0.33 0.0 0 0 115.58 142.75
  L 110.33 142.75
  A 0.33 0.33 0.0 0 1 110.00 142.42
  L 110.00 139.33
  A 0.33 0.33 0.0 0 1 110.33 139.00
  L 126.17 139.00
  A 0.33 0.33 0.0 0 1 126.50 139.33
  L 126.50 142.42
  A 0.33 0.33 0.0 0 1 126.17 142.75
  L 120.83 142.75
  A 0.33 0.33 0.0 0 0 120.50 143.08
  Z"
/>
<path fill="#1d1d1e" d="
  M 161.50 143.13
  L 161.50 160.37
  A 0.38 0.38 0.0 0 1 161.12 160.75
  L 157.43 160.75
  A 0.38 0.38 0.0 0 1 157.05 160.37
  L 156.90 143.13
  A 0.38 0.38 0.0 0 0 156.52 142.75
  L 151.38 142.75
  A 0.38 0.38 0.0 0 1 151.00 142.37
  L 151.00 139.38
  A 0.38 0.38 0.0 0 1 151.38 139.00
  L 167.12 139.00
  A 0.38 0.38 0.0 0 1 167.50 139.38
  L 167.50 142.37
  A 0.38 0.38 0.0 0 1 167.12 142.75
  L 161.88 142.75
  A 0.38 0.38 0.0 0 0 161.50 143.13
  Z"
/>
<rect fill="#ffffff" x="-5.30" y="-7.20" transform="translate(180.17,149.77) rotate(0.9)" width="10.60" height="14.40" rx="4.89"/>
<path fill="#1d1d1e" d="
  M 108.75 177.88
  L 108.75 182.87
  A 0.38 0.38 0.0 0 0 109.13 183.25
  L 116.37 183.25
  A 0.38 0.38 0.0 0 1 116.75 183.63
  L 116.75 186.65
  A 0.38 0.38 0.0 0 1 116.37 187.03
  L 104.63 186.93
  A 0.38 0.38 0.0 0 1 104.25 186.55
  L 104.25 165.63
  A 0.38 0.38 0.0 0 1 104.63 165.25
  L 116.37 165.24
  A 0.38 0.38 0.0 0 1 116.75 165.62
  L 116.75 168.62
  A 0.38 0.38 0.0 0 1 116.37 169.00
  L 109.13 169.00
  A 0.38 0.38 0.0 0 0 108.75 169.38
  L 108.75 173.37
  A 0.38 0.38 0.0 0 0 109.13 173.75
  L 115.87 173.75
  A 0.38 0.38 0.0 0 1 116.25 174.13
  L 116.25 177.12
  A 0.38 0.38 0.0 0 1 115.87 177.50
  L 109.13 177.50
  A 0.38 0.38 0.0 0 0 108.75 177.88
  Z"
/>
<path fill="#1d1d1e" d="
  M 126.00 179.89
  L 126.00 186.26
  Q 126.00 187.20 125.10 186.95
  Q 123.64 186.56 122.15 187.02
  Q 121.50 187.22 121.50 186.54
  L 121.50 165.77
  Q 121.50 165.30 121.97 165.29
  C 126.33 165.17 134.40 163.97 136.12 169.59
  Q 137.59 174.35 132.94 177.25
  Q 132.50 177.52 132.78 177.96
  L 138.29 186.29
  A 0.50 0.50 0.0 0 0 139.17 186.18
  L 146.42 165.42
  Q 146.57 165.00 147.01 165.00
  L 151.56 165.00
  Q 152.22 165.00 152.43 165.62
  L 159.67 186.35
  Q 159.90 187.00 159.21 187.00
  L 155.46 187.00
  Q 154.99 187.00 154.85 186.55
  L 153.54 182.22
  A 0.67 0.66 -8.1 0 0 152.90 181.75
  L 145.94 181.75
  Q 145.37 181.75 145.20 182.30
  L 143.96 186.51
  Q 143.79 187.06 143.23 187.05
  L 134.21 186.86
  Q 133.65 186.85 133.36 186.37
  L 128.82 179.09
  A 1.53 1.52 29.1 0 0 126.00 179.89
  Z
  M 126.00 169.53
  L 126.00 174.37
  A 0.39 0.39 0.0 0 0 126.39 174.76
  L 128.69 174.76
  A 3.07 2.62 0.0 0 0 131.76 172.14
  L 131.76 171.76
  A 3.07 2.62 0.0 0 0 128.69 169.14
  L 126.39 169.14
  A 0.39 0.39 0.0 0 0 126.00 169.53
  Z
  M 151.96 177.02
  L 149.74 169.77
  Q 149.42 168.71 149.09 169.77
  L 146.82 177.24
  A 0.43 0.43 0.0 0 0 147.22 177.80
  L 151.36 177.83
  A 0.63 0.62 81.8 0 0 151.96 177.02
  Z"
/>
<path fill="#1d1d1e" d="
  M 52.56 174.53
  L 59.19 174.80
  A 0.32 0.32 0.0 0 1 59.50 175.12
  L 59.50 177.93
  A 0.32 0.32 0.0 0 1 59.18 178.25
  L 52.57 178.25
  A 0.32 0.32 0.0 0 0 52.25 178.57
  L 52.25 186.68
  A 0.32 0.32 0.0 0 1 51.93 187.00
  L 48.07 187.00
  A 0.32 0.32 0.0 0 1 47.75 186.68
  L 47.75 165.57
  A 0.32 0.32 0.0 0 1 48.07 165.25
  L 59.93 165.25
  A 0.32 0.32 0.0 0 1 60.25 165.57
  L 60.25 168.69
  A 0.32 0.32 0.0 0 1 59.93 169.01
  L 52.57 169.00
  A 0.32 0.32 0.0 0 0 52.25 169.32
  L 52.25 174.21
  A 0.32 0.32 0.0 0 0 52.56 174.53
  Z"
/>
<path fill="#1d1d1e" d="
  M 69.58 173.75
  L 76.17 173.75
  A 0.33 0.33 0.0 0 1 76.50 174.08
  L 76.50 177.17
  A 0.33 0.33 0.0 0 1 76.17 177.50
  L 69.43 177.50
  A 0.33 0.33 0.0 0 0 69.10 177.83
  L 69.10 182.94
  A 0.33 0.33 0.0 0 0 69.44 183.27
  L 76.66 183.09
  A 0.33 0.33 0.0 0 1 77.00 183.42
  L 77.00 186.66
  A 0.33 0.33 0.0 0 1 76.66 186.99
  L 65.07 186.75
  A 0.33 0.33 0.0 0 1 64.75 186.42
  L 64.75 165.58
  A 0.33 0.33 0.0 0 1 65.08 165.25
  L 76.67 165.25
  A 0.33 0.33 0.0 0 1 77.00 165.58
  L 77.00 168.67
  A 0.33 0.33 0.0 0 1 76.67 169.00
  L 69.58 169.00
  A 0.33 0.33 0.0 0 0 69.25 169.33
  L 69.25 173.42
  A 0.33 0.33 0.0 0 0 69.58 173.75
  Z"
/>
<path fill="#1d1d1e" d="
  M 81.70 165.49
  A 0.26 0.26 0.0 0 1 81.96 165.23
  L 89.44 165.20
  A 10.26 10.11 -0.2 0 1 99.74 175.28
  L 99.74 176.72
  A 10.26 10.11 -0.2 0 1 89.52 186.86
  L 82.04 186.89
  A 0.26 0.26 0.0 0 1 81.78 186.63
  L 81.70 165.49
  Z
  M 86.24 169.43
  L 86.26 182.61
  A 0.42 0.42 0.0 0 0 86.68 183.03
  L 89.08 183.02
  A 5.70 5.53 -0.1 0 0 94.77 177.48
  L 94.77 174.52
  A 5.70 5.53 -0.1 0 0 89.06 169.00
  L 86.66 169.01
  A 0.42 0.42 0.0 0 0 86.24 169.43
  Z"
/>
<path fill="#1d1d1e" d="
  M 167.63 183.26
  L 175.87 183.22
  A 0.38 0.38 0.0 0 1 176.25 183.60
  L 176.25 186.57
  A 0.38 0.38 0.0 0 1 175.87 186.95
  L 163.38 187.02
  A 0.38 0.38 0.0 0 1 163.00 186.64
  L 163.00 165.63
  A 0.38 0.38 0.0 0 1 163.38 165.25
  L 166.87 165.25
  A 0.38 0.38 0.0 0 1 167.25 165.63
  L 167.25 182.88
  A 0.38 0.38 0.0 0 0 167.63 183.26
  Z"
/>
<path fill="#ffffff" d="
  M 86.24 169.43
  A 0.42 0.42 0.0 0 1 86.66 169.01
  L 89.06 169.00
  A 5.70 5.53 -0.1 0 1 94.77 174.52
  L 94.77 177.48
  A 5.70 5.53 -0.1 0 1 89.08 183.02
  L 86.68 183.03
  A 0.42 0.42 0.0 0 1 86.26 182.61
  L 86.24 169.43
  Z"
/>
<path fill="#ffffff" d="
  M 126.00 169.53
  A 0.39 0.39 0.0 0 1 126.39 169.14
  L 128.69 169.14
  A 3.07 2.62 -0.0 0 1 131.76 171.76
  L 131.76 172.14
  A 3.07 2.62 -0.0 0 1 128.69 174.76
  L 126.39 174.76
  A 0.39 0.39 0.0 0 1 126.00 174.37
  L 126.00 169.53
  Z"
/>
<path fill="#ffffff" d="
  M 151.36 177.83
  L 147.22 177.80
  A 0.43 0.43 0.0 0 1 146.82 177.24
  L 149.09 169.77
  Q 149.42 168.71 149.74 169.77
  L 151.96 177.02
  A 0.63 0.62 81.8 0 1 151.36 177.83
  Z"
/>
<ellipse fill="#1d1d1e" cx="0.00" cy="0.00" transform="translate(108.12,197.68) rotate(-44.2)" rx="1.23" ry="1.11"/>
<path fill="#1d1d1e" d="
  M 59.59 199.23
  C 48.15 194.08 46.96 215.43 59.55 211.56
  Q 60.61 211.23 60.45 212.41
  A 0.78 0.78 0.0 0 1 59.93 213.05
  C 44.99 218.38 44.40 192.30 60.33 197.38
  Q 61.06 197.61 60.73 198.30
  L 60.43 198.92
  Q 60.16 199.49 59.59 199.23
  Z"
/>
<path fill="#1d1d1e" d="
  M 78.45 203.20
  L 78.66 211.07
  A 0.79 0.78 2.6 0 0 79.36 211.82
  L 81.80 212.08
  A 0.68 0.68 0.0 0 1 81.85 213.43
  C 74.82 214.68 76.86 207.05 76.70 203.13
  Q 76.67 202.54 76.08 202.52
  L 75.11 202.47
  A 0.38 0.38 0.0 0 1 74.99 201.74
  Q 77.33 200.85 77.48 198.31
  A 0.47 0.47 0.0 0 1 78.42 198.31
  L 78.55 200.42
  A 0.61 0.61 0.0 0 0 79.16 201.00
  L 81.29 201.00
  Q 81.77 201.00 82.01 201.41
  L 82.26 201.85
  Q 82.64 202.50 81.88 202.50
  L 79.12 202.50
  A 0.68 0.67 89.2 0 0 78.45 203.20
  Z"
/>
<path fill="#1d1d1e" d="
  M 70.18 212.33
  C 63.70 217.90 57.71 205.68 69.69 206.00
  A 1.34 1.34 0.0 0 0 70.86 203.95
  C 69.11 201.19 67.21 203.05 65.00 202.99
  A 0.75 0.75 0.0 0 1 64.76 201.54
  C 74.68 197.90 73.17 207.92 72.55 213.36
  A 0.38 0.38 0.0 0 1 71.87 213.55
  L 71.00 212.41
  Q 70.64 211.93 70.18 212.33
  Z
  M 65.51 211.52
  C 68.12 212.99 71.25 211.11 70.72 208.02
  Q 70.65 207.59 70.21 207.53
  Q 67.77 207.21 65.60 208.29
  A 1.83 1.83 0.0 0 0 65.51 211.52
  Z"
/>
<path fill="#1d1d1e" d="
  M 91.96 205.33
  C 92.23 201.85 88.78 202.26 86.69 202.96
  Q 86.33 203.08 85.97 202.96
  Q 85.30 202.73 85.56 202.05
  Q 85.66 201.80 85.90 201.67
  Q 89.90 199.61 93.25 202.29
  A 1.30 1.29 19.1 0 1 93.75 203.31
  L 93.75 213.16
  A 0.56 0.56 0.0 0 1 92.66 213.34
  L 92.34 212.40
  Q 92.10 211.70 91.53 212.18
  C 88.68 214.54 83.11 214.00 83.98 209.48
  C 84.64 206.05 88.69 206.15 91.38 205.92
  Q 91.92 205.87 91.96 205.33
  Z
  M 91.31 207.48
  C 89.64 207.30 85.00 207.67 86.06 210.73
  A 1.74 1.73 84.9 0 0 87.43 211.88
  Q 91.75 212.54 92.00 208.29
  Q 92.04 207.56 91.31 207.48
  Z"
/>
<path fill="#1d1d1e" d="
  M 100.06 202.59
  Q 101.48 200.84 103.79 200.76
  Q 104.35 200.74 104.58 201.24
  L 104.76 201.63
  Q 105.12 202.40 104.28 202.41
  C 98.36 202.47 99.46 209.04 99.49 212.82
  A 0.69 0.68 0.8 0 1 98.78 213.50
  Q 98.63 213.50 98.47 213.50
  Q 97.75 213.50 97.75 212.78
  L 97.75 201.77
  Q 97.75 201.10 98.42 201.10
  L 98.73 201.10
  Q 99.12 201.10 99.17 201.49
  L 99.29 202.38
  Q 99.43 203.37 100.06 202.59
  Z"
/>
<path fill="#1d1d1e" d="
  M 115.94 201.83
  Q 119.79 199.32 122.94 202.79
  A 1.30 1.30 0.0 0 1 123.27 203.68
  Q 123.19 208.33 123.28 212.75
  Q 123.30 213.97 121.90 213.37
  Q 121.55 213.23 121.54 212.85
  L 121.41 204.08
  A 1.01 1.01 0.0 0 0 120.93 203.24
  C 113.95 199.02 114.61 209.82 114.79 212.93
  A 0.59 0.59 0.0 0 1 113.94 213.49
  L 113.15 213.10
  A 0.30 0.28 -76.8 0 1 113.00 212.84
  L 113.00 201.44
  A 0.54 0.53 17.2 0 1 113.84 201.00
  L 115.04 201.82
  Q 115.49 202.13 115.94 201.83
  Z"
/>
<path fill="#1d1d1e" d="
  M 128.52 208.31
  C 128.77 212.51 132.95 212.02 135.77 211.50
  A 0.77 0.77 0.0 0 1 136.18 212.98
  C 129.83 215.32 123.80 210.28 127.17 203.95
  C 130.26 198.12 138.09 201.08 136.82 207.16
  Q 136.74 207.56 136.33 207.57
  L 129.01 207.77
  Q 128.49 207.79 128.52 208.31
  Z
  M 128.79 206.05
  L 134.79 205.95
  A 0.23 0.23 0.0 0 0 135.02 205.71
  L 135.01 205.57
  A 3.13 3.08 89.0 0 0 131.88 202.50
  L 131.58 202.50
  A 3.13 3.08 89.0 0 0 128.55 205.69
  L 128.56 205.83
  A 0.23 0.23 0.0 0 0 128.79 206.05
  Z"
/>
<path fill="#1d1d1e" d="
  M 142.98 202.05
  Q 143.14 201.66 143.65 201.46
  C 152.36 198.04 150.47 208.51 150.51 212.73
  Q 150.51 213.25 149.99 213.25
  L 149.26 213.25
  Q 148.77 213.25 148.76 212.75
  Q 148.75 209.24 148.67 205.76
  C 148.57 201.40 143.56 201.49 142.40 204.67
  Q 141.62 206.82 142.22 212.54
  Q 142.29 213.16 141.68 213.32
  L 140.89 213.52
  A 0.55 0.54 83.2 0 1 140.21 212.98
  Q 140.35 207.37 140.14 201.82
  Q 140.11 201.12 140.75 201.02
  Q 141.25 200.94 141.56 201.36
  L 142.37 202.49
  Q 142.65 202.88 142.98 202.05
  Z"
/>
<path fill="#1d1d1e" d="
  M 154.06 211.60
  C 155.88 211.08 157.67 212.91 160.00 211.35
  A 1.42 1.41 -48.9 0 0 159.84 208.91
  C 157.59 207.80 153.10 206.75 153.74 203.50
  C 154.36 200.37 159.24 200.53 161.35 201.33
  A 0.86 0.86 0.0 0 1 161.89 202.30
  Q 161.80 202.77 161.37 202.92
  C 160.65 203.18 157.95 202.28 156.60 202.61
  A 1.54 1.54 0.0 0 0 156.47 205.55
  C 158.32 206.19 161.41 207.08 162.11 209.11
  C 163.83 214.08 156.69 213.89 154.05 213.07
  A 0.77 0.77 0.0 0 1 154.06 211.60
  Z"
/>
<path fill="#1d1d1e" d="
  M 166.80 208.26
  C 167.17 212.45 171.06 212.05 173.98 211.50
  A 0.79 0.78 29.6 0 1 174.40 213.01
  C 160.92 217.83 162.99 197.26 172.07 201.24
  Q 175.49 202.74 175.21 207.02
  Q 175.19 207.41 174.79 207.43
  L 167.30 207.69
  Q 166.75 207.71 166.80 208.26
  Z
  M 167.37 205.98
  L 172.77 206.00
  A 0.40 0.40 0.0 0 0 173.17 205.61
  L 173.17 205.50
  A 2.99 2.93 -89.7 0 0 170.26 202.49
  L 169.92 202.49
  A 2.99 2.93 -89.7 0 0 166.97 205.46
  L 166.97 205.57
  A 0.40 0.40 0.0 0 0 167.37 205.98
  Z"
/>
<rect fill="#1d1d1e" x="-0.97" y="-6.21" transform="translate(108.04,207.27) rotate(0.4)" width="1.94" height="12.42" rx="0.77"/>
<path fill="#ffffff" d="
  M 128.79 206.05
  A 0.23 0.23 0.0 0 1 128.56 205.83
  L 128.55 205.69
  A 3.13 3.08 89.0 0 1 131.58 202.50
  L 131.88 202.50
  A 3.13 3.08 89.0 0 1 135.01 205.57
  L 135.02 205.71
  A 0.23 0.23 0.0 0 1 134.79 205.95
  L 128.79 206.05
  Z"
/>
<path fill="#ffffff" d="
  M 167.37 205.98
  A 0.40 0.40 0.0 0 1 166.97 205.57
  L 166.97 205.46
  A 2.99 2.93 -89.7 0 1 169.92 202.49
  L 170.26 202.49
  A 2.99 2.93 -89.7 0 1 173.17 205.50
  L 173.17 205.61
  A 0.40 0.40 0.0 0 1 172.77 206.00
  L 167.37 205.98
  Z"
/>
<path fill="#ffffff" d="
  M 91.31 207.48
  Q 92.04 207.56 92.00 208.29
  Q 91.75 212.54 87.43 211.88
  A 1.74 1.73 84.9 0 1 86.06 210.73
  C 85.00 207.67 89.64 207.30 91.31 207.48
  Z"
/>
<path fill="#ffffff" d="
  M 65.51 211.52
  A 1.83 1.83 0.0 0 1 65.60 208.29
  Q 67.77 207.21 70.21 207.53
  Q 70.65 207.59 70.72 208.02
  C 71.25 211.11 68.12 212.99 65.51 211.52
  Z"
/>
</svg>
